# MagicaVoxel @ Ephtracy

# group
o 

# material
mtllib candado-11.mtl
usemtl palette

# normals
vn 0 0 -1
vn 0 0 1
vn -1 0 0
vn 1 0 0
vn 0 -1 0
vn 0 1 0

# texcoords
vt 0.939453 0.5
vt 0.943359 0.5

# verts
v 0.4 1.5 -0.2
v 4.1 1.5 -0.2
v 0.3 1.6 -0.2
v 0.4 1.6 -0.2
v 4.1 1.6 -0.2
v 4.2 1.6 -0.2
v 0.3 2.3 -0.2
v 0.4 2.3 -0.2
v 4.1 2.3 -0.2
v 4.2 2.3 -0.2
v 0.4 2.4 -0.2
v 4.1 2.4 -0.2
v 0.4 1.5 -0.1
v 4.1 1.5 -0.1
v 0.3 1.6 -0.1
v 0.4 1.6 -0.1
v 4.1 1.6 -0.1
v 4.2 1.6 -0.1
v 0.3 2.3 -0.1
v 0.4 2.3 -0.1
v 4.1 2.3 -0.1
v 4.2 2.3 -0.1
v 0.4 2.4 -0.1
v 4.1 2.4 -0.1
v 0.6 1.8 0
v 0.7 1.8 0
v 0.8 1.8 0
v 0.9 1.8 0
v 1.2 1.8 0
v 1.5 1.8 0
v 1.8 1.8 0
v 1.9 1.8 0
v 2 1.8 0
v 2.1 1.8 0
v 2.4 1.8 0
v 2.7 1.8 0
v 3 1.8 0
v 3.3 1.8 0
v 3.6 1.8 0
v 3.9 1.8 0
v 0.7 1.9 0
v 0.8 1.9 0
v 0.9 1.9 0
v 1.3 1.9 0
v 1.4 1.9 0
v 1.8 1.9 0
v 1.9 1.9 0
v 2 1.9 0
v 2.1 1.9 0
v 2.5 1.9 0
v 2.6 1.9 0
v 3.1 1.9 0
v 3.3 1.9 0
v 3.6 1.9 0
v 3.7 1.9 0
v 3.8 1.9 0
v 3.9 1.9 0
v 0.7 2 0
v 0.8 2 0
v 0.9 2 0
v 1.3 2 0
v 1.4 2 0
v 1.8 2 0
v 1.9 2 0
v 2 2 0
v 2.1 2 0
v 3.1 2 0
v 3.3 2 0
v 3.6 2 0
v 3.7 2 0
v 3.8 2 0
v 3.9 2 0
v 0.6 2.1 0
v 0.7 2.1 0
v 0.8 2.1 0
v 0.9 2.1 0
v 1.2 2.1 0
v 1.5 2.1 0
v 1.8 2.1 0
v 1.9 2.1 0
v 2 2.1 0
v 2.1 2.1 0
v 2.4 2.1 0
v 2.5 2.1 0
v 2.6 2.1 0
v 2.7 2.1 0
v 3 2.1 0
v 3.3 2.1 0
v 3.6 2.1 0
v 3.9 2.1 0
v 0.4 1.6 0.1
v 4.1 1.6 0.1
v 0.5 1.7 0.1
v 1 1.7 0.1
v 1.1 1.7 0.1
v 1.6 1.7 0.1
v 1.7 1.7 0.1
v 2.2 1.7 0.1
v 2.3 1.7 0.1
v 2.8 1.7 0.1
v 2.9 1.7 0.1
v 3.4 1.7 0.1
v 3.5 1.7 0.1
v 4 1.7 0.1
v 0.6 1.8 0.1
v 0.7 1.8 0.1
v 0.8 1.8 0.1
v 0.9 1.8 0.1
v 1.2 1.8 0.1
v 1.5 1.8 0.1
v 1.8 1.8 0.1
v 1.9 1.8 0.1
v 2 1.8 0.1
v 2.1 1.8 0.1
v 2.4 1.8 0.1
v 2.7 1.8 0.1
v 3 1.8 0.1
v 3.3 1.8 0.1
v 3.6 1.8 0.1
v 3.9 1.8 0.1
v 0.7 1.9 0.1
v 0.8 1.9 0.1
v 0.9 1.9 0.1
v 1.3 1.9 0.1
v 1.4 1.9 0.1
v 1.8 1.9 0.1
v 1.9 1.9 0.1
v 2 1.9 0.1
v 2.1 1.9 0.1
v 2.5 1.9 0.1
v 2.6 1.9 0.1
v 3.1 1.9 0.1
v 3.3 1.9 0.1
v 3.6 1.9 0.1
v 3.7 1.9 0.1
v 3.8 1.9 0.1
v 3.9 1.9 0.1
v 0.7 2 0.1
v 0.8 2 0.1
v 0.9 2 0.1
v 1.3 2 0.1
v 1.4 2 0.1
v 1.8 2 0.1
v 1.9 2 0.1
v 2 2 0.1
v 2.1 2 0.1
v 3.1 2 0.1
v 3.3 2 0.1
v 3.6 2 0.1
v 3.7 2 0.1
v 3.8 2 0.1
v 3.9 2 0.1
v 0.6 2.1 0.1
v 0.7 2.1 0.1
v 0.8 2.1 0.1
v 0.9 2.1 0.1
v 1.2 2.1 0.1
v 1.5 2.1 0.1
v 1.8 2.1 0.1
v 1.9 2.1 0.1
v 2 2.1 0.1
v 2.1 2.1 0.1
v 2.4 2.1 0.1
v 2.5 2.1 0.1
v 2.6 2.1 0.1
v 2.7 2.1 0.1
v 3 2.1 0.1
v 3.3 2.1 0.1
v 3.6 2.1 0.1
v 3.9 2.1 0.1
v 0.5 2.2 0.1
v 1 2.2 0.1
v 1.1 2.2 0.1
v 1.6 2.2 0.1
v 1.7 2.2 0.1
v 2.2 2.2 0.1
v 2.3 2.2 0.1
v 2.8 2.2 0.1
v 2.9 2.2 0.1
v 3.4 2.2 0.1
v 3.5 2.2 0.1
v 4 2.2 0.1
v 0.4 2.3 0.1
v 4.1 2.3 0.1
v 0.3 1.6 -0.2
v 0.3 2.3 -0.2
v 0.3 1.6 -0.1
v 0.3 2.3 -0.1
v 0.4 1.5 -0.2
v 0.4 1.6 -0.2
v 0.4 2.3 -0.2
v 0.4 2.4 -0.2
v 0.4 1.5 -0.1
v 0.4 1.6 -0.1
v 0.4 2.3 -0.1
v 0.4 2.4 -0.1
v 0.4 1.6 0.1
v 0.4 2.3 0.1
v 0.7 1.8 0
v 0.7 1.9 0
v 0.7 2 0
v 0.7 2.1 0
v 0.7 1.8 0.1
v 0.7 1.9 0.1
v 0.7 2 0.1
v 0.7 2.1 0.1
v 0.8 1.9 0
v 0.8 2 0
v 0.8 1.9 0.1
v 0.8 2 0.1
v 0.9 1.8 0
v 0.9 1.9 0
v 0.9 2 0
v 0.9 2.1 0
v 0.9 1.8 0.1
v 0.9 1.9 0.1
v 0.9 2 0.1
v 0.9 2.1 0.1
v 1.3 1.9 0
v 1.3 2 0
v 1.3 1.9 0.1
v 1.3 2 0.1
v 1.5 1.8 0
v 1.5 2.1 0
v 1.5 1.8 0.1
v 1.5 2.1 0.1
v 1.9 1.8 0
v 1.9 1.9 0
v 1.9 2 0
v 1.9 2.1 0
v 1.9 1.8 0.1
v 1.9 1.9 0.1
v 1.9 2 0.1
v 1.9 2.1 0.1
v 2 1.9 0
v 2 2 0
v 2 1.9 0.1
v 2 2 0.1
v 2.1 1.8 0
v 2.1 1.9 0
v 2.1 2 0
v 2.1 2.1 0
v 2.1 1.8 0.1
v 2.1 1.9 0.1
v 2.1 2 0.1
v 2.1 2.1 0.1
v 2.5 1.9 0
v 2.5 2.1 0
v 2.5 1.9 0.1
v 2.5 2.1 0.1
v 2.7 1.8 0
v 2.7 2.1 0
v 2.7 1.8 0.1
v 2.7 2.1 0.1
v 3.1 1.9 0
v 3.1 2 0
v 3.1 1.9 0.1
v 3.1 2 0.1
v 3.3 1.8 0
v 3.3 1.9 0
v 3.3 2 0
v 3.3 2.1 0
v 3.3 1.8 0.1
v 3.3 1.9 0.1
v 3.3 2 0.1
v 3.3 2.1 0.1
v 3.8 1.9 0
v 3.8 2 0
v 3.8 1.9 0.1
v 3.8 2 0.1
v 3.9 1.8 0
v 3.9 1.9 0
v 3.9 2 0
v 3.9 2.1 0
v 3.9 1.8 0.1
v 3.9 1.9 0.1
v 3.9 2 0.1
v 3.9 2.1 0.1
v 0.6 1.8 0
v 0.6 2.1 0
v 0.6 1.8 0.1
v 0.6 2.1 0.1
v 0.8 1.8 0
v 0.8 1.9 0
v 0.8 2 0
v 0.8 2.1 0
v 0.8 1.8 0.1
v 0.8 1.9 0.1
v 0.8 2 0.1
v 0.8 2.1 0.1
v 1.2 1.8 0
v 1.2 2.1 0
v 1.2 1.8 0.1
v 1.2 2.1 0.1
v 1.4 1.9 0
v 1.4 2 0
v 1.4 1.9 0.1
v 1.4 2 0.1
v 1.8 1.8 0
v 1.8 1.9 0
v 1.8 2 0
v 1.8 2.1 0
v 1.8 1.8 0.1
v 1.8 1.9 0.1
v 1.8 2 0.1
v 1.8 2.1 0.1
v 1.9 1.9 0
v 1.9 2 0
v 1.9 1.9 0.1
v 1.9 2 0.1
v 2 1.8 0
v 2 1.9 0
v 2 2 0
v 2 2.1 0
v 2 1.8 0.1
v 2 1.9 0.1
v 2 2 0.1
v 2 2.1 0.1
v 2.4 1.8 0
v 2.4 2.1 0
v 2.4 1.8 0.1
v 2.4 2.1 0.1
v 2.6 1.9 0
v 2.6 2.1 0
v 2.6 1.9 0.1
v 2.6 2.1 0.1
v 3 1.8 0
v 3 2.1 0
v 3 1.8 0.1
v 3 2.1 0.1
v 3.6 1.8 0
v 3.6 1.9 0
v 3.6 2 0
v 3.6 2.1 0
v 3.6 1.8 0.1
v 3.6 1.9 0.1
v 3.6 2 0.1
v 3.6 2.1 0.1
v 3.7 1.9 0
v 3.7 2 0
v 3.7 1.9 0.1
v 3.7 2 0.1
v 4.1 1.5 -0.2
v 4.1 1.6 -0.2
v 4.1 2.3 -0.2
v 4.1 2.4 -0.2
v 4.1 1.5 -0.1
v 4.1 1.6 -0.1
v 4.1 2.3 -0.1
v 4.1 2.4 -0.1
v 4.1 1.6 0.1
v 4.1 2.3 0.1
v 4.2 1.6 -0.2
v 4.2 2.3 -0.2
v 4.2 1.6 -0.1
v 4.2 2.3 -0.1
v 0.4 1.5 -0.2
v 0.4 1.5 -0.1
v 4.1 1.5 -0.2
v 4.1 1.5 -0.1
v 0.3 1.6 -0.2
v 0.3 1.6 -0.1
v 0.4 1.6 -0.2
v 0.4 1.6 -0.1
v 0.4 1.6 0.1
v 4.1 1.6 -0.2
v 4.1 1.6 -0.1
v 4.1 1.6 0.1
v 4.2 1.6 -0.2
v 4.2 1.6 -0.1
v 0.8 1.9 0
v 0.8 1.9 0.1
v 0.9 1.9 0
v 0.9 1.9 0.1
v 1.3 1.9 0
v 1.3 1.9 0.1
v 1.4 1.9 0
v 1.4 1.9 0.1
v 1.8 1.9 0
v 1.8 1.9 0.1
v 1.9 1.9 0
v 1.9 1.9 0.1
v 2 1.9 0
v 2 1.9 0.1
v 2.1 1.9 0
v 2.1 1.9 0.1
v 2.5 1.9 0
v 2.5 1.9 0.1
v 2.6 1.9 0
v 2.6 1.9 0.1
v 3.1 1.9 0
v 3.1 1.9 0.1
v 3.3 1.9 0
v 3.3 1.9 0.1
v 3.6 1.9 0
v 3.6 1.9 0.1
v 3.7 1.9 0
v 3.7 1.9 0.1
v 3.8 1.9 0
v 3.8 1.9 0.1
v 3.9 1.9 0
v 3.9 1.9 0.1
v 0.7 2 0
v 0.7 2 0.1
v 0.8 2 0
v 0.8 2 0.1
v 1.9 2 0
v 1.9 2 0.1
v 2 2 0
v 2 2 0.1
v 0.6 2.1 0
v 0.6 2.1 0.1
v 0.7 2.1 0
v 0.7 2.1 0.1
v 0.8 2.1 0
v 0.8 2.1 0.1
v 0.9 2.1 0
v 0.9 2.1 0.1
v 1.2 2.1 0
v 1.2 2.1 0.1
v 1.5 2.1 0
v 1.5 2.1 0.1
v 1.8 2.1 0
v 1.8 2.1 0.1
v 1.9 2.1 0
v 1.9 2.1 0.1
v 2 2.1 0
v 2 2.1 0.1
v 2.1 2.1 0
v 2.1 2.1 0.1
v 2.4 2.1 0
v 2.4 2.1 0.1
v 2.5 2.1 0
v 2.5 2.1 0.1
v 2.6 2.1 0
v 2.6 2.1 0.1
v 2.7 2.1 0
v 2.7 2.1 0.1
v 3 2.1 0
v 3 2.1 0.1
v 3.3 2.1 0
v 3.3 2.1 0.1
v 3.6 2.1 0
v 3.6 2.1 0.1
v 3.9 2.1 0
v 3.9 2.1 0.1
v 0.6 1.8 0
v 0.6 1.8 0.1
v 0.7 1.8 0
v 0.7 1.8 0.1
v 0.8 1.8 0
v 0.8 1.8 0.1
v 0.9 1.8 0
v 0.9 1.8 0.1
v 1.2 1.8 0
v 1.2 1.8 0.1
v 1.5 1.8 0
v 1.5 1.8 0.1
v 1.8 1.8 0
v 1.8 1.8 0.1
v 1.9 1.8 0
v 1.9 1.8 0.1
v 2 1.8 0
v 2 1.8 0.1
v 2.1 1.8 0
v 2.1 1.8 0.1
v 2.4 1.8 0
v 2.4 1.8 0.1
v 2.7 1.8 0
v 2.7 1.8 0.1
v 3 1.8 0
v 3 1.8 0.1
v 3.3 1.8 0
v 3.3 1.8 0.1
v 3.6 1.8 0
v 3.6 1.8 0.1
v 3.9 1.8 0
v 3.9 1.8 0.1
v 0.7 1.9 0
v 0.7 1.9 0.1
v 0.8 1.9 0
v 0.8 1.9 0.1
v 1.9 1.9 0
v 1.9 1.9 0.1
v 2 1.9 0
v 2 1.9 0.1
v 0.8 2 0
v 0.8 2 0.1
v 0.9 2 0
v 0.9 2 0.1
v 1.3 2 0
v 1.3 2 0.1
v 1.4 2 0
v 1.4 2 0.1
v 1.8 2 0
v 1.8 2 0.1
v 1.9 2 0
v 1.9 2 0.1
v 2 2 0
v 2 2 0.1
v 2.1 2 0
v 2.1 2 0.1
v 3.1 2 0
v 3.1 2 0.1
v 3.3 2 0
v 3.3 2 0.1
v 3.6 2 0
v 3.6 2 0.1
v 3.7 2 0
v 3.7 2 0.1
v 3.8 2 0
v 3.8 2 0.1
v 3.9 2 0
v 3.9 2 0.1
v 0.3 2.3 -0.2
v 0.3 2.3 -0.1
v 0.4 2.3 -0.2
v 0.4 2.3 -0.1
v 0.4 2.3 0.1
v 4.1 2.3 -0.2
v 4.1 2.3 -0.1
v 4.1 2.3 0.1
v 4.2 2.3 -0.2
v 4.2 2.3 -0.1
v 0.4 2.4 -0.2
v 0.4 2.4 -0.1
v 4.1 2.4 -0.2
v 4.1 2.4 -0.1

# faces
f 4/1/1 2/1/1 1/1/1
f 5/1/1 2/1/1 4/1/1
f 7/1/1 4/1/1 3/1/1
f 7/1/1 6/1/1 5/1/1
f 7/1/1 5/1/1 4/1/1
f 8/1/1 6/1/1 7/1/1
f 9/1/1 6/1/1 8/1/1
f 10/1/1 6/1/1 9/1/1
f 11/1/1 9/1/1 8/1/1
f 12/1/1 9/1/1 11/1/1
f 13/1/2 14/1/2 16/1/2
f 16/1/2 14/1/2 17/1/2
f 15/1/2 16/1/2 19/1/2
f 19/1/2 16/1/2 20/1/2
f 17/1/2 18/1/2 21/1/2
f 21/1/2 18/1/2 22/1/2
f 20/1/2 21/1/2 23/1/2
f 23/1/2 21/1/2 24/1/2
f 25/1/2 26/1/2 41/1/2
f 27/1/2 28/1/2 42/1/2
f 42/1/2 28/1/2 43/1/2
f 29/1/2 30/1/2 44/1/2
f 44/1/2 30/1/2 45/1/2
f 31/1/2 32/1/2 46/1/2
f 46/1/2 32/1/2 47/1/2
f 33/1/2 34/1/2 48/1/2
f 48/1/2 34/1/2 49/1/2
f 35/1/2 36/1/2 50/1/2
f 50/1/2 36/1/2 51/1/2
f 37/1/2 38/1/2 52/1/2
f 52/1/2 38/1/2 53/1/2
f 39/1/2 40/1/2 54/1/2
f 54/1/2 40/1/2 55/1/2
f 55/1/2 40/1/2 56/1/2
f 56/1/2 40/1/2 57/1/2
f 25/1/2 41/1/2 58/1/2
f 41/1/2 42/1/2 58/1/2
f 58/1/2 42/1/2 59/1/2
f 29/1/2 44/1/2 61/1/2
f 45/1/2 30/1/2 62/1/2
f 47/1/2 48/1/2 64/1/2
f 64/1/2 48/1/2 65/1/2
f 37/1/2 52/1/2 67/1/2
f 55/1/2 56/1/2 70/1/2
f 70/1/2 56/1/2 71/1/2
f 25/1/2 58/1/2 73/1/2
f 73/1/2 58/1/2 74/1/2
f 59/1/2 60/1/2 75/1/2
f 75/1/2 60/1/2 76/1/2
f 29/1/2 61/1/2 77/1/2
f 61/1/2 62/1/2 77/1/2
f 62/1/2 30/1/2 78/1/2
f 77/1/2 62/1/2 78/1/2
f 63/1/2 64/1/2 79/1/2
f 79/1/2 64/1/2 80/1/2
f 65/1/2 66/1/2 81/1/2
f 81/1/2 66/1/2 82/1/2
f 35/1/2 50/1/2 83/1/2
f 83/1/2 50/1/2 84/1/2
f 51/1/2 36/1/2 85/1/2
f 85/1/2 36/1/2 86/1/2
f 67/1/2 68/1/2 87/1/2
f 37/1/2 67/1/2 87/1/2
f 87/1/2 68/1/2 88/1/2
f 71/1/2 72/1/2 89/1/2
f 70/1/2 71/1/2 89/1/2
f 69/1/2 70/1/2 89/1/2
f 89/1/2 72/1/2 90/1/2
f 91/1/2 92/1/2 93/1/2
f 93/1/2 92/1/2 94/1/2
f 94/1/2 92/1/2 95/1/2
f 95/1/2 92/1/2 96/1/2
f 96/1/2 92/1/2 97/1/2
f 97/1/2 92/1/2 98/1/2
f 98/1/2 92/1/2 99/1/2
f 99/1/2 92/1/2 100/1/2
f 100/1/2 92/1/2 101/1/2
f 101/1/2 92/1/2 102/1/2
f 102/1/2 92/1/2 103/1/2
f 103/1/2 92/1/2 104/1/2
f 93/2/2 94/2/2 105/2/2
f 105/2/2 94/2/2 106/2/2
f 106/2/2 94/2/2 107/2/2
f 107/2/2 94/2/2 108/2/2
f 95/2/2 96/2/2 109/2/2
f 109/2/2 96/2/2 110/2/2
f 97/2/2 98/2/2 111/2/2
f 111/2/2 98/2/2 112/2/2
f 112/2/2 98/2/2 113/2/2
f 113/2/2 98/2/2 114/2/2
f 99/2/2 100/2/2 115/2/2
f 115/2/2 100/2/2 116/2/2
f 101/2/2 102/2/2 117/2/2
f 117/2/2 102/2/2 118/2/2
f 103/2/2 104/2/2 119/2/2
f 119/2/2 104/2/2 120/2/2
f 106/2/2 107/2/2 121/2/2
f 121/2/2 107/2/2 122/2/2
f 108/2/2 94/2/2 123/2/2
f 97/2/2 111/2/2 126/2/2
f 112/2/2 113/2/2 127/2/2
f 127/2/2 113/2/2 128/2/2
f 114/2/2 98/2/2 129/2/2
f 118/2/2 102/2/2 133/2/2
f 103/2/2 119/2/2 134/2/2
f 120/2/2 104/2/2 137/2/2
f 122/2/2 123/2/2 139/2/2
f 123/2/2 94/2/2 140/2/2
f 139/2/2 123/2/2 140/2/2
f 124/2/2 125/2/2 141/2/2
f 141/2/2 125/2/2 142/2/2
f 97/2/2 126/2/2 143/2/2
f 126/2/2 127/2/2 143/2/2
f 143/2/2 127/2/2 144/2/2
f 128/2/2 129/2/2 145/2/2
f 129/2/2 98/2/2 146/2/2
f 145/2/2 129/2/2 146/2/2
f 132/2/2 133/2/2 147/2/2
f 133/2/2 102/2/2 148/2/2
f 147/2/2 133/2/2 148/2/2
f 134/2/2 135/2/2 149/2/2
f 103/2/2 134/2/2 149/2/2
f 149/2/2 135/2/2 150/2/2
f 136/2/2 137/2/2 151/2/2
f 137/2/2 104/2/2 152/2/2
f 151/2/2 137/2/2 152/2/2
f 93/2/2 105/2/2 153/2/2
f 138/2/2 139/2/2 154/2/2
f 154/2/2 139/2/2 155/2/2
f 140/2/2 94/2/2 156/2/2
f 95/2/2 109/2/2 157/2/2
f 110/2/2 96/2/2 158/2/2
f 97/2/2 143/2/2 159/2/2
f 144/2/2 145/2/2 160/2/2
f 160/2/2 145/2/2 161/2/2
f 146/2/2 98/2/2 162/2/2
f 99/2/2 115/2/2 163/2/2
f 130/2/2 131/2/2 164/2/2
f 164/2/2 131/2/2 165/2/2
f 116/2/2 100/2/2 166/2/2
f 101/2/2 117/2/2 167/2/2
f 148/2/2 102/2/2 168/2/2
f 103/2/2 149/2/2 169/2/2
f 152/2/2 104/2/2 170/2/2
f 91/1/2 93/1/2 171/1/2
f 155/2/2 156/2/2 171/2/2
f 154/2/2 155/2/2 171/2/2
f 93/2/2 153/2/2 171/2/2
f 153/2/2 154/2/2 171/2/2
f 94/1/2 95/1/2 172/1/2
f 171/2/2 156/2/2 172/2/2
f 156/2/2 94/2/2 172/2/2
f 95/2/2 157/2/2 173/2/2
f 172/1/2 95/1/2 173/1/2
f 157/2/2 158/2/2 173/2/2
f 96/1/2 97/1/2 174/1/2
f 173/2/2 158/2/2 174/2/2
f 158/2/2 96/2/2 174/2/2
f 160/2/2 161/2/2 175/2/2
f 174/1/2 97/1/2 175/1/2
f 161/2/2 162/2/2 175/2/2
f 97/2/2 159/2/2 175/2/2
f 159/2/2 160/2/2 175/2/2
f 98/1/2 99/1/2 176/1/2
f 175/2/2 162/2/2 176/2/2
f 162/2/2 98/2/2 176/2/2
f 164/2/2 165/2/2 177/2/2
f 176/1/2 99/1/2 177/1/2
f 99/2/2 163/2/2 177/2/2
f 165/2/2 166/2/2 177/2/2
f 163/2/2 164/2/2 177/2/2
f 100/1/2 101/1/2 178/1/2
f 177/2/2 166/2/2 178/2/2
f 166/2/2 100/2/2 178/2/2
f 167/2/2 168/2/2 179/2/2
f 178/1/2 101/1/2 179/1/2
f 101/2/2 167/2/2 179/2/2
f 102/1/2 103/1/2 180/1/2
f 179/2/2 168/2/2 180/2/2
f 168/2/2 102/2/2 180/2/2
f 169/2/2 170/2/2 181/2/2
f 180/1/2 103/1/2 181/1/2
f 103/2/2 169/2/2 181/2/2
f 104/1/2 92/1/2 182/1/2
f 181/2/2 170/2/2 182/2/2
f 170/2/2 104/2/2 182/2/2
f 179/1/2 180/1/2 183/1/2
f 180/1/2 181/1/2 183/1/2
f 181/1/2 182/1/2 183/1/2
f 91/1/2 171/1/2 183/1/2
f 172/1/2 173/1/2 183/1/2
f 171/1/2 172/1/2 183/1/2
f 174/1/2 175/1/2 183/1/2
f 176/1/2 177/1/2 183/1/2
f 175/1/2 176/1/2 183/1/2
f 178/1/2 179/1/2 183/1/2
f 177/1/2 178/1/2 183/1/2
f 173/1/2 174/1/2 183/1/2
f 182/1/2 92/1/2 184/1/2
f 183/1/2 182/1/2 184/1/2
f 187/1/3 186/1/3 185/1/3
f 188/1/3 186/1/3 187/1/3
f 193/1/3 190/1/3 189/1/3
f 194/1/3 190/1/3 193/1/3
f 195/1/3 192/1/3 191/1/3
f 196/1/3 192/1/3 195/1/3
f 197/1/3 195/1/3 194/1/3
f 198/1/3 195/1/3 197/1/3
f 203/2/3 200/2/3 199/2/3
f 204/2/3 200/2/3 203/2/3
f 205/2/3 202/2/3 201/2/3
f 206/2/3 202/2/3 205/2/3
f 209/2/3 208/2/3 207/2/3
f 210/2/3 208/2/3 209/2/3
f 215/2/3 212/2/3 211/2/3
f 216/2/3 212/2/3 215/2/3
f 217/2/3 214/2/3 213/2/3
f 218/2/3 214/2/3 217/2/3
f 221/2/3 220/2/3 219/2/3
f 222/2/3 220/2/3 221/2/3
f 225/2/3 224/2/3 223/2/3
f 226/2/3 224/2/3 225/2/3
f 231/2/3 228/2/3 227/2/3
f 232/2/3 228/2/3 231/2/3
f 233/2/3 230/2/3 229/2/3
f 234/2/3 230/2/3 233/2/3
f 237/2/3 236/2/3 235/2/3
f 238/2/3 236/2/3 237/2/3
f 243/2/3 240/2/3 239/2/3
f 244/2/3 240/2/3 243/2/3
f 245/2/3 242/2/3 241/2/3
f 246/2/3 242/2/3 245/2/3
f 249/2/3 248/2/3 247/2/3
f 250/2/3 248/2/3 249/2/3
f 253/2/3 252/2/3 251/2/3
f 254/2/3 252/2/3 253/2/3
f 257/2/3 256/2/3 255/2/3
f 258/2/3 256/2/3 257/2/3
f 263/2/3 260/2/3 259/2/3
f 264/2/3 260/2/3 263/2/3
f 265/2/3 262/2/3 261/2/3
f 266/2/3 262/2/3 265/2/3
f 269/2/3 268/2/3 267/2/3
f 270/2/3 268/2/3 269/2/3
f 275/2/3 272/2/3 271/2/3
f 276/2/3 272/2/3 275/2/3
f 277/2/3 274/2/3 273/2/3
f 278/2/3 274/2/3 277/2/3
f 279/2/4 280/2/4 281/2/4
f 281/2/4 280/2/4 282/2/4
f 283/2/4 284/2/4 287/2/4
f 287/2/4 284/2/4 288/2/4
f 285/2/4 286/2/4 289/2/4
f 289/2/4 286/2/4 290/2/4
f 291/2/4 292/2/4 293/2/4
f 293/2/4 292/2/4 294/2/4
f 295/2/4 296/2/4 297/2/4
f 297/2/4 296/2/4 298/2/4
f 299/2/4 300/2/4 303/2/4
f 303/2/4 300/2/4 304/2/4
f 301/2/4 302/2/4 305/2/4
f 305/2/4 302/2/4 306/2/4
f 307/2/4 308/2/4 309/2/4
f 309/2/4 308/2/4 310/2/4
f 311/2/4 312/2/4 315/2/4
f 315/2/4 312/2/4 316/2/4
f 313/2/4 314/2/4 317/2/4
f 317/2/4 314/2/4 318/2/4
f 319/2/4 320/2/4 321/2/4
f 321/2/4 320/2/4 322/2/4
f 323/2/4 324/2/4 325/2/4
f 325/2/4 324/2/4 326/2/4
f 327/2/4 328/2/4 329/2/4
f 329/2/4 328/2/4 330/2/4
f 331/2/4 332/2/4 335/2/4
f 335/2/4 332/2/4 336/2/4
f 333/2/4 334/2/4 337/2/4
f 337/2/4 334/2/4 338/2/4
f 339/2/4 340/2/4 341/2/4
f 341/2/4 340/2/4 342/2/4
f 343/1/4 344/1/4 347/1/4
f 347/1/4 344/1/4 348/1/4
f 345/1/4 346/1/4 349/1/4
f 349/1/4 346/1/4 350/1/4
f 348/1/4 349/1/4 351/1/4
f 351/1/4 349/1/4 352/1/4
f 353/1/4 354/1/4 355/1/4
f 355/1/4 354/1/4 356/1/4
f 359/1/5 358/1/5 357/1/5
f 360/1/5 358/1/5 359/1/5
f 363/1/5 362/1/5 361/1/5
f 364/1/5 362/1/5 363/1/5
f 367/1/5 365/1/5 364/1/5
f 368/1/5 365/1/5 367/1/5
f 369/1/5 367/1/5 366/1/5
f 370/1/5 367/1/5 369/1/5
f 373/2/5 372/2/5 371/2/5
f 374/2/5 372/2/5 373/2/5
f 377/2/5 376/2/5 375/2/5
f 378/2/5 376/2/5 377/2/5
f 381/2/5 380/2/5 379/2/5
f 382/2/5 380/2/5 381/2/5
f 385/2/5 384/2/5 383/2/5
f 386/2/5 384/2/5 385/2/5
f 389/2/5 388/2/5 387/2/5
f 390/2/5 388/2/5 389/2/5
f 393/2/5 392/2/5 391/2/5
f 394/2/5 392/2/5 393/2/5
f 397/2/5 396/2/5 395/2/5
f 398/2/5 396/2/5 397/2/5
f 401/2/5 400/2/5 399/2/5
f 402/2/5 400/2/5 401/2/5
f 405/2/5 404/2/5 403/2/5
f 406/2/5 404/2/5 405/2/5
f 409/2/5 408/2/5 407/2/5
f 410/2/5 408/2/5 409/2/5
f 413/2/5 412/2/5 411/2/5
f 414/2/5 412/2/5 413/2/5
f 417/2/5 416/2/5 415/2/5
f 418/2/5 416/2/5 417/2/5
f 421/2/5 420/2/5 419/2/5
f 422/2/5 420/2/5 421/2/5
f 425/2/5 424/2/5 423/2/5
f 426/2/5 424/2/5 425/2/5
f 429/2/5 428/2/5 427/2/5
f 430/2/5 428/2/5 429/2/5
f 433/2/5 432/2/5 431/2/5
f 434/2/5 432/2/5 433/2/5
f 437/2/5 436/2/5 435/2/5
f 438/2/5 436/2/5 437/2/5
f 441/2/5 440/2/5 439/2/5
f 442/2/5 440/2/5 441/2/5
f 445/2/5 444/2/5 443/2/5
f 446/2/5 444/2/5 445/2/5
f 447/2/6 448/2/6 449/2/6
f 449/2/6 448/2/6 450/2/6
f 451/2/6 452/2/6 453/2/6
f 453/2/6 452/2/6 454/2/6
f 455/2/6 456/2/6 457/2/6
f 457/2/6 456/2/6 458/2/6
f 459/2/6 460/2/6 461/2/6
f 461/2/6 460/2/6 462/2/6
f 463/2/6 464/2/6 465/2/6
f 465/2/6 464/2/6 466/2/6
f 467/2/6 468/2/6 469/2/6
f 469/2/6 468/2/6 470/2/6
f 471/2/6 472/2/6 473/2/6
f 473/2/6 472/2/6 474/2/6
f 475/2/6 476/2/6 477/2/6
f 477/2/6 476/2/6 478/2/6
f 479/2/6 480/2/6 481/2/6
f 481/2/6 480/2/6 482/2/6
f 483/2/6 484/2/6 485/2/6
f 485/2/6 484/2/6 486/2/6
f 487/2/6 488/2/6 489/2/6
f 489/2/6 488/2/6 490/2/6
f 491/2/6 492/2/6 493/2/6
f 493/2/6 492/2/6 494/2/6
f 495/2/6 496/2/6 497/2/6
f 497/2/6 496/2/6 498/2/6
f 499/2/6 500/2/6 501/2/6
f 501/2/6 500/2/6 502/2/6
f 503/2/6 504/2/6 505/2/6
f 505/2/6 504/2/6 506/2/6
f 507/2/6 508/2/6 509/2/6
f 509/2/6 508/2/6 510/2/6
f 511/2/6 512/2/6 513/2/6
f 513/2/6 512/2/6 514/2/6
f 515/1/6 516/1/6 517/1/6
f 517/1/6 516/1/6 518/1/6
f 518/1/6 519/1/6 521/1/6
f 521/1/6 519/1/6 522/1/6
f 520/1/6 521/1/6 523/1/6
f 523/1/6 521/1/6 524/1/6
f 525/1/6 526/1/6 527/1/6
f 527/1/6 526/1/6 528/1/6
