# MagicaVoxel @ Ephtracy

# group
o 

# material
mtllib codigo-11.mtl
usemtl palette

# normals
vn -1 0 0
vn 1 0 0
vn 0 0 1
vn 0 0 -1
vn 0 -1 0
vn 0 1 0

# texcoords
vt 0.939453 0.5
vt 0.943359 0.5
vt 0.947266 0.5
vt 0.978516 0.5
vt 0.982422 0.5

# verts
v -1.5 4.4 0.2
v -1.5 4.4 0.1
v -1.5 5.4 0.2
v -1.5 5.4 0.1
v -0.5 4.4 0.2
v -0.5 4.4 0.1
v -0.5 5.4 0.2
v -0.5 5.4 0.1
v -1.5 4.4 0.2
v -1.5 5.4 0.2
v -1.4 4.5 0.2
v -1.4 4.6 0.2
v -1.4 5.1 0.2
v -1.4 5.3 0.2
v -1.3 4.5 0.2
v -1.3 4.6 0.2
v -1.3 5.1 0.2
v -1.3 5.2 0.2
v -1.2 4.6 0.2
v -1.2 4.8 0.2
v -1.2 5 0.2
v -1.2 5.2 0.2
v -1.2 5.3 0.2
v -1.1 4.7 0.2
v -1.1 4.8 0.2
v -1.1 5 0.2
v -0.9 4.7 0.2
v -0.9 4.8 0.2
v -0.9 5 0.2
v -0.8 4.6 0.2
v -0.8 4.8 0.2
v -0.8 5 0.2
v -0.8 5.2 0.2
v -0.8 5.3 0.2
v -0.7 4.5 0.2
v -0.7 4.6 0.2
v -0.7 5.1 0.2
v -0.7 5.2 0.2
v -0.6 4.5 0.2
v -0.6 4.6 0.2
v -0.6 5.1 0.2
v -0.6 5.3 0.2
v -0.5 4.4 0.2
v -0.5 5.4 0.2
v -1.5 4.4 0.1
v -1.5 5.4 0.1
v -1.4 4.5 0.1
v -1.4 4.6 0.1
v -1.4 5.1 0.1
v -1.4 5.3 0.1
v -1.3 4.5 0.1
v -1.3 4.6 0.1
v -1.3 5.1 0.1
v -1.3 5.2 0.1
v -1.2 4.6 0.1
v -1.2 4.8 0.1
v -1.2 5 0.1
v -1.2 5.2 0.1
v -1.2 5.3 0.1
v -1.1 4.7 0.1
v -1.1 4.8 0.1
v -1.1 5 0.1
v -0.9 4.7 0.1
v -0.9 4.8 0.1
v -0.9 5 0.1
v -0.8 4.6 0.1
v -0.8 4.8 0.1
v -0.8 5 0.1
v -0.8 5.2 0.1
v -0.8 5.3 0.1
v -0.7 4.5 0.1
v -0.7 4.6 0.1
v -0.7 5.1 0.1
v -0.7 5.2 0.1
v -0.6 4.5 0.1
v -0.6 4.6 0.1
v -0.6 5.1 0.1
v -0.6 5.3 0.1
v -0.5 4.4 0.1
v -0.5 5.4 0.1
v -1.5 4.4 0.2
v -0.5 4.4 0.2
v -1.5 4.4 0.1
v -0.5 4.4 0.1
v -1.5 5.4 0.2
v -0.5 5.4 0.2
v -1.5 5.4 0.1
v -0.5 5.4 0.1

# faces
f 3/5/1 2/5/1 1/5/1
f 4/5/1 2/5/1 3/5/1
f 5/5/2 6/5/2 7/5/2
f 7/5/2 6/5/2 8/5/2
f 11/5/3 10/5/3 9/5/3
f 12/5/3 10/5/3 11/5/3
f 13/5/3 10/5/3 12/5/3
f 14/5/3 10/5/3 13/5/3
f 15/5/3 11/5/3 9/5/3
f 15/4/3 12/4/3 11/4/3
f 16/2/3 13/2/3 12/2/3
f 16/4/3 12/4/3 15/4/3
f 17/1/3 14/1/3 13/1/3
f 17/2/3 13/2/3 16/2/3
f 18/1/3 14/1/3 17/1/3
f 19/2/3 16/2/3 15/2/3
f 19/1/3 17/1/3 16/1/3
f 20/1/3 17/1/3 19/1/3
f 21/1/3 17/1/3 20/1/3
f 22/1/3 14/1/3 18/1/3
f 22/2/3 18/2/3 17/2/3
f 23/5/3 10/5/3 14/5/3
f 23/1/3 14/1/3 22/1/3
f 24/4/3 20/4/3 19/4/3
f 25/5/3 21/5/3 20/5/3
f 25/4/3 20/4/3 24/4/3
f 26/1/3 17/1/3 21/1/3
f 26/5/3 21/5/3 25/5/3
f 27/3/3 25/3/3 24/3/3
f 27/4/3 24/4/3 19/4/3
f 28/1/3 26/1/3 25/1/3
f 28/3/3 25/3/3 27/3/3
f 29/1/3 17/1/3 26/1/3
f 29/1/3 26/1/3 28/1/3
f 30/4/3 28/4/3 27/4/3
f 30/4/3 27/4/3 19/4/3
f 30/2/3 19/2/3 15/2/3
f 31/5/3 29/5/3 28/5/3
f 31/4/3 28/4/3 30/4/3
f 32/1/3 17/1/3 29/1/3
f 32/5/3 29/5/3 31/5/3
f 33/2/3 22/2/3 17/2/3
f 33/2/3 23/2/3 22/2/3
f 34/5/3 10/5/3 23/5/3
f 34/2/3 23/2/3 33/2/3
f 35/5/3 15/5/3 9/5/3
f 35/2/3 30/2/3 15/2/3
f 36/1/3 31/1/3 30/1/3
f 36/2/3 30/2/3 35/2/3
f 36/1/3 32/1/3 31/1/3
f 37/1/3 17/1/3 32/1/3
f 37/1/3 32/1/3 36/1/3
f 37/2/3 33/2/3 17/2/3
f 38/1/3 34/1/3 33/1/3
f 38/2/3 33/2/3 37/2/3
f 39/4/3 36/4/3 35/4/3
f 39/5/3 35/5/3 9/5/3
f 40/2/3 37/2/3 36/2/3
f 40/4/3 36/4/3 39/4/3
f 41/1/3 38/1/3 37/1/3
f 41/2/3 37/2/3 40/2/3
f 42/1/3 34/1/3 38/1/3
f 42/1/3 38/1/3 41/1/3
f 42/5/3 10/5/3 34/5/3
f 43/5/3 41/5/3 40/5/3
f 43/5/3 40/5/3 39/5/3
f 43/5/3 42/5/3 41/5/3
f 43/5/3 39/5/3 9/5/3
f 44/5/3 10/5/3 42/5/3
f 44/5/3 42/5/3 43/5/3
f 45/5/4 46/5/4 47/5/4
f 47/5/4 46/5/4 48/5/4
f 48/5/4 46/5/4 49/5/4
f 49/5/4 46/5/4 50/5/4
f 45/5/4 47/5/4 51/5/4
f 47/4/4 48/4/4 51/4/4
f 48/2/4 49/2/4 52/2/4
f 51/4/4 48/4/4 52/4/4
f 49/1/4 50/1/4 53/1/4
f 52/2/4 49/2/4 53/2/4
f 53/1/4 50/1/4 54/1/4
f 51/2/4 52/2/4 55/2/4
f 52/1/4 53/1/4 55/1/4
f 55/1/4 53/1/4 56/1/4
f 56/1/4 53/1/4 57/1/4
f 54/1/4 50/1/4 58/1/4
f 53/2/4 54/2/4 58/2/4
f 50/5/4 46/5/4 59/5/4
f 58/1/4 50/1/4 59/1/4
f 55/4/4 56/4/4 60/4/4
f 56/5/4 57/5/4 61/5/4
f 60/4/4 56/4/4 61/4/4
f 57/1/4 53/1/4 62/1/4
f 61/5/4 57/5/4 62/5/4
f 60/3/4 61/3/4 63/3/4
f 55/4/4 60/4/4 63/4/4
f 61/1/4 62/1/4 64/1/4
f 63/3/4 61/3/4 64/3/4
f 62/1/4 53/1/4 65/1/4
f 64/1/4 62/1/4 65/1/4
f 63/4/4 64/4/4 66/4/4
f 55/4/4 63/4/4 66/4/4
f 51/2/4 55/2/4 66/2/4
f 64/5/4 65/5/4 67/5/4
f 66/4/4 64/4/4 67/4/4
f 65/1/4 53/1/4 68/1/4
f 67/5/4 65/5/4 68/5/4
f 53/2/4 58/2/4 69/2/4
f 58/2/4 59/2/4 69/2/4
f 59/5/4 46/5/4 70/5/4
f 69/2/4 59/2/4 70/2/4
f 45/5/4 51/5/4 71/5/4
f 51/2/4 66/2/4 71/2/4
f 66/1/4 67/1/4 72/1/4
f 71/2/4 66/2/4 72/2/4
f 67/1/4 68/1/4 72/1/4
f 68/1/4 53/1/4 73/1/4
f 72/1/4 68/1/4 73/1/4
f 53/2/4 69/2/4 73/2/4
f 69/1/4 70/1/4 74/1/4
f 73/2/4 69/2/4 74/2/4
f 71/4/4 72/4/4 75/4/4
f 45/5/4 71/5/4 75/5/4
f 72/2/4 73/2/4 76/2/4
f 75/4/4 72/4/4 76/4/4
f 73/1/4 74/1/4 77/1/4
f 76/2/4 73/2/4 77/2/4
f 74/1/4 70/1/4 78/1/4
f 77/1/4 74/1/4 78/1/4
f 70/5/4 46/5/4 78/5/4
f 76/5/4 77/5/4 79/5/4
f 75/5/4 76/5/4 79/5/4
f 77/5/4 78/5/4 79/5/4
f 45/5/4 75/5/4 79/5/4
f 78/5/4 46/5/4 80/5/4
f 79/5/4 78/5/4 80/5/4
f 83/5/5 82/5/5 81/5/5
f 84/5/5 82/5/5 83/5/5
f 85/5/6 86/5/6 87/5/6
f 87/5/6 86/5/6 88/5/6
