# MagicaVoxel @ Ephtracy

# group
o 

# material
mtllib codigo-12.mtl
usemtl palette

# normals
vn -1 0 0
vn 1 0 0
vn 0 0 1
vn 0 0 -1
vn 0 -1 0
vn 0 1 0

# texcoords
vt 0.970703 0.5
vt 0.974609 0.5
vt 0.982422 0.5

# verts
v -2 0.3 0.1
v -2 0.3 -0.1
v -2 5.4 0
v -2 5.4 -0.1
v -2 5.7 0.1
v -2 5.7 0
v 2 0.3 0.1
v 2 0.3 -0.1
v 2 5.4 0
v 2 5.4 -0.1
v 2 5.7 0.1
v 2 5.7 0
v -2 0.3 0.1
v -2 5.7 0.1
v -1.9 0.4 0.1
v -1.9 5.6 0.1
v -1.7 0.6 0.1
v -1.7 4 0.1
v 1.7 0.6 0.1
v 1.7 4 0.1
v 1.9 0.4 0.1
v 1.9 5.6 0.1
v 2 0.3 0.1
v 2 5.7 0.1
v -2 5.4 0
v -2 5.7 0
v -1.9 5.4 0
v -1.9 5.6 0
v 1.9 5.4 0
v 1.9 5.6 0
v 2 5.4 0
v 2 5.7 0
v -2 0.3 -0.1
v -2 5.4 -0.1
v 2 0.3 -0.1
v 2 5.4 -0.1
v -2 0.3 0.1
v 2 0.3 0.1
v -2 0.3 -0.1
v 2 0.3 -0.1
v -2 5.4 0
v -1.9 5.4 0
v 1.9 5.4 0
v 2 5.4 0
v -2 5.4 -0.1
v 2 5.4 -0.1
v -2 5.7 0.1
v 2 5.7 0.1
v -2 5.7 0
v 2 5.7 0

# faces
f 3/1/1 2/1/1 1/1/1
f 4/1/1 2/1/1 3/1/1
f 5/1/1 3/1/1 1/1/1
f 6/1/1 3/1/1 5/1/1
f 7/1/2 8/1/2 9/1/2
f 9/1/2 8/1/2 10/1/2
f 7/1/2 9/1/2 11/1/2
f 11/1/2 9/1/2 12/1/2
f 15/1/3 14/1/3 13/1/3
f 16/1/3 14/1/3 15/1/3
f 17/2/3 16/2/3 15/2/3
f 18/2/3 16/2/3 17/2/3
f 19/2/3 17/2/3 15/2/3
f 19/3/3 18/3/3 17/3/3
f 20/2/3 16/2/3 18/2/3
f 20/3/3 18/3/3 19/3/3
f 21/1/3 15/1/3 13/1/3
f 21/2/3 19/2/3 15/2/3
f 21/2/3 20/2/3 19/2/3
f 22/2/3 16/2/3 20/2/3
f 22/2/3 20/2/3 21/2/3
f 22/1/3 14/1/3 16/1/3
f 23/1/3 21/1/3 13/1/3
f 23/1/3 22/1/3 21/1/3
f 24/1/3 14/1/3 22/1/3
f 24/1/3 22/1/3 23/1/3
f 25/1/4 26/1/4 27/1/4
f 27/1/4 26/1/4 28/1/4
f 27/2/4 28/2/4 29/2/4
f 28/1/4 26/1/4 30/1/4
f 29/2/4 28/2/4 30/2/4
f 29/1/4 30/1/4 31/1/4
f 30/1/4 26/1/4 32/1/4
f 31/1/4 30/1/4 32/1/4
f 33/1/4 34/1/4 35/1/4
f 35/1/4 34/1/4 36/1/4
f 39/1/5 38/1/5 37/1/5
f 40/1/5 38/1/5 39/1/5
f 41/1/6 42/1/6 45/1/6
f 43/1/6 44/1/6 45/1/6
f 42/1/6 43/1/6 45/1/6
f 45/1/6 44/1/6 46/1/6
f 47/1/6 48/1/6 49/1/6
f 49/1/6 48/1/6 50/1/6
