# MagicaVoxel @ Ephtracy

# group
o 

# material
mtllib Room1-13.mtl
usemtl palette

# normals
vn -1 0 0
vn 1 0 0
vn 0 0 1
vn 0 0 -1
vn 0 -1 0
vn 0 1 0

# texcoords
vt 0.537109 0.5
vt 0.751953 0.5
vt 0.755859 0.5

# verts
v -1.9 0.2 -3.2
v -1.9 0.2 -3.3
v -1.9 0.2 -4.7
v -1.9 1.7 -3.3
v -1.9 1.7 -4.7
v -1.9 1.8 -3.2
v -1.9 1.8 -4.7
v -0.8 0.2 -3.2
v -0.8 0.2 -3.3
v -0.8 0.2 -4.6
v -0.8 0.7 -3.2
v -0.8 0.7 -3.3
v -0.8 0.7 -4.6
v -0.8 0.8 -3.2
v -0.8 0.8 -3.3
v -0.8 0.8 -4.6
v -0.8 1.2 -3.2
v -0.8 1.2 -3.3
v -0.8 1.2 -4.6
v -0.8 1.3 -3.2
v -0.8 1.3 -3.3
v -0.8 1.3 -4.6
v -0.8 1.7 -3.2
v -0.8 1.7 -3.3
v -0.8 1.7 -4.6
v 1.3 0.2 -3.2
v 1.3 0.2 -3.3
v 1.3 0.2 -4.7
v 1.3 1.7 -3.2
v 1.3 1.7 -3.3
v 1.3 1.7 -4.7
v 1.7 1 -3.2
v 1.7 1 -3.3
v 1.7 1.1 -3.2
v 1.7 1.1 -3.3
v 1.7 1.5 -3.2
v 1.7 1.5 -3.3
v 1.7 1.6 -3.2
v 1.7 1.6 -3.3
v 2.4 0.2 -3.2
v 2.4 0.2 -3.3
v 2.4 0.2 -4.7
v 2.4 0.8 -3.3
v 2.4 0.8 -4.7
v 2.4 1.2 -3.3
v 2.4 1.2 -3.4
v 2.4 1.3 -3.3
v 2.4 1.3 -3.4
v 2.4 1.7 -3.2
v 2.4 1.7 -3.3
v -1.8 0.2 -3.2
v -1.8 0.2 -3.3
v -1.8 0.2 -4.6
v -1.8 0.7 -3.2
v -1.8 0.7 -3.3
v -1.8 0.7 -4.6
v -1.8 0.8 -3.2
v -1.8 0.8 -3.3
v -1.8 0.8 -4.6
v -1.8 1.2 -3.2
v -1.8 1.2 -3.3
v -1.8 1.2 -4.6
v -1.8 1.3 -3.2
v -1.8 1.3 -3.3
v -1.8 1.3 -4.6
v -1.8 1.7 -3.2
v -1.8 1.7 -3.3
v -1.8 1.7 -4.6
v -0.7 0.2 -3.2
v -0.7 0.2 -3.3
v -0.7 0.2 -4.7
v -0.7 1.7 -3.2
v -0.7 1.7 -3.3
v -0.7 1.7 -4.7
v 1.4 0.2 -3.2
v 1.4 0.2 -3.3
v 1.4 0.2 -4.7
v 1.4 0.8 -3.3
v 1.4 0.8 -4.7
v 1.4 1.2 -3.3
v 1.4 1.2 -3.4
v 1.4 1.3 -3.3
v 1.4 1.3 -3.4
v 1.4 1.7 -3.2
v 1.4 1.7 -3.3
v 2.1 1 -3.2
v 2.1 1 -3.3
v 2.1 1.1 -3.2
v 2.1 1.1 -3.3
v 2.1 1.5 -3.2
v 2.1 1.5 -3.3
v 2.1 1.6 -3.2
v 2.1 1.6 -3.3
v 2.5 0.2 -3.2
v 2.5 0.2 -3.3
v 2.5 0.2 -4.7
v 2.5 1.7 -3.3
v 2.5 1.7 -4.7
v 2.5 1.8 -3.2
v 2.5 1.8 -4.7
v -1.9 0.2 -3.2
v -1.9 1.8 -3.2
v -1.8 0.2 -3.2
v -1.8 0.7 -3.2
v -1.8 0.8 -3.2
v -1.8 1.2 -3.2
v -1.8 1.3 -3.2
v -1.8 1.7 -3.2
v -0.8 0.2 -3.2
v -0.8 0.7 -3.2
v -0.8 0.8 -3.2
v -0.8 1.2 -3.2
v -0.8 1.3 -3.2
v -0.8 1.7 -3.2
v -0.7 0.2 -3.2
v -0.7 1.7 -3.2
v 1.3 0.2 -3.2
v 1.3 1.7 -3.2
v 1.4 0.2 -3.2
v 1.4 1.7 -3.2
v 1.7 1 -3.2
v 1.7 1.1 -3.2
v 1.7 1.5 -3.2
v 1.7 1.6 -3.2
v 1.8 1 -3.2
v 1.8 1.1 -3.2
v 2 1 -3.2
v 2 1.1 -3.2
v 2.1 1 -3.2
v 2.1 1.1 -3.2
v 2.1 1.5 -3.2
v 2.1 1.6 -3.2
v 2.4 0.2 -3.2
v 2.4 1.7 -3.2
v 2.5 0.2 -3.2
v 2.5 1.8 -3.2
v 1.4 0.8 -3.3
v 1.4 1.2 -3.3
v 1.4 1.3 -3.3
v 1.4 1.7 -3.3
v 1.7 1 -3.3
v 1.7 1.1 -3.3
v 1.7 1.5 -3.3
v 1.7 1.6 -3.3
v 1.8 1 -3.3
v 1.8 1.1 -3.3
v 2 1 -3.3
v 2 1.1 -3.3
v 2.1 1 -3.3
v 2.1 1.1 -3.3
v 2.1 1.5 -3.3
v 2.1 1.6 -3.3
v 2.4 0.8 -3.3
v 2.4 1.2 -3.3
v 2.4 1.3 -3.3
v 2.4 1.7 -3.3
v 1.4 1.2 -3.4
v 1.4 1.3 -3.4
v 2.4 1.2 -3.4
v 2.4 1.3 -3.4
v -1.8 0.2 -4.6
v -1.8 0.7 -4.6
v -1.8 0.8 -4.6
v -1.8 1.2 -4.6
v -1.8 1.3 -4.6
v -1.8 1.7 -4.6
v -0.8 0.2 -4.6
v -0.8 0.7 -4.6
v -0.8 0.8 -4.6
v -0.8 1.2 -4.6
v -0.8 1.3 -4.6
v -0.8 1.7 -4.6
v -1.9 0.2 -4.7
v -1.9 1.7 -4.7
v -1.9 1.8 -4.7
v -0.7 0.2 -4.7
v -0.7 1.7 -4.7
v 1.3 0.2 -4.7
v 1.3 1.7 -4.7
v 1.4 0.2 -4.7
v 1.4 0.8 -4.7
v 2.4 0.2 -4.7
v 2.4 0.8 -4.7
v 2.5 0.2 -4.7
v 2.5 1.7 -4.7
v 2.5 1.8 -4.7
v -1.9 0.2 -3.2
v -1.8 0.2 -3.2
v -0.8 0.2 -3.2
v -0.7 0.2 -3.2
v 1.3 0.2 -3.2
v 1.4 0.2 -3.2
v 2.4 0.2 -3.2
v 2.5 0.2 -3.2
v -1.9 0.2 -3.3
v -1.8 0.2 -3.3
v -0.8 0.2 -3.3
v -0.7 0.2 -3.3
v 1.3 0.2 -3.3
v 1.4 0.2 -3.3
v 2.4 0.2 -3.3
v 2.5 0.2 -3.3
v -1.8 0.2 -4.6
v -0.8 0.2 -4.6
v -1.9 0.2 -4.7
v -0.7 0.2 -4.7
v 1.3 0.2 -4.7
v 1.4 0.2 -4.7
v 2.4 0.2 -4.7
v 2.5 0.2 -4.7
v -1.8 0.7 -3.2
v -0.8 0.7 -3.2
v -1.8 0.7 -3.3
v -0.8 0.7 -3.3
v -1.8 0.7 -4.6
v -0.8 0.7 -4.6
v 1.4 0.8 -3.3
v 2.4 0.8 -3.3
v 1.4 0.8 -4.7
v 2.4 0.8 -4.7
v 1.7 1 -3.2
v 1.8 1 -3.2
v 2 1 -3.2
v 2.1 1 -3.2
v 1.7 1 -3.3
v 1.8 1 -3.3
v 2 1 -3.3
v 2.1 1 -3.3
v -1.8 1.2 -3.2
v -0.8 1.2 -3.2
v -1.8 1.2 -3.3
v -0.8 1.2 -3.3
v -1.8 1.2 -4.6
v -0.8 1.2 -4.6
v 1.4 1.3 -3.3
v 2.4 1.3 -3.3
v 1.4 1.3 -3.4
v 2.4 1.3 -3.4
v 1.7 1.5 -3.2
v 2.1 1.5 -3.2
v 1.7 1.5 -3.3
v 2.1 1.5 -3.3
v -1.8 1.7 -3.2
v -0.8 1.7 -3.2
v -0.7 1.7 -3.2
v 1.3 1.7 -3.2
v 1.4 1.7 -3.2
v 2.4 1.7 -3.2
v -1.8 1.7 -3.3
v -0.8 1.7 -3.3
v -0.7 1.7 -3.3
v 1.3 1.7 -3.3
v 1.4 1.7 -3.3
v 2.4 1.7 -3.3
v -1.8 1.7 -4.6
v -0.8 1.7 -4.6
v -0.7 1.7 -4.7
v 1.3 1.7 -4.7
v -1.8 0.8 -3.2
v -0.8 0.8 -3.2
v -1.8 0.8 -3.3
v -0.8 0.8 -3.3
v -1.8 0.8 -4.6
v -0.8 0.8 -4.6
v 1.7 1.1 -3.2
v 1.8 1.1 -3.2
v 2 1.1 -3.2
v 2.1 1.1 -3.2
v 1.7 1.1 -3.3
v 1.8 1.1 -3.3
v 2 1.1 -3.3
v 2.1 1.1 -3.3
v 1.4 1.2 -3.3
v 2.4 1.2 -3.3
v 1.4 1.2 -3.4
v 2.4 1.2 -3.4
v -1.8 1.3 -3.2
v -0.8 1.3 -3.2
v -1.8 1.3 -3.3
v -0.8 1.3 -3.3
v -1.8 1.3 -4.6
v -0.8 1.3 -4.6
v 1.7 1.6 -3.2
v 2.1 1.6 -3.2
v 1.7 1.6 -3.3
v 2.1 1.6 -3.3
v -1.9 1.8 -3.2
v 2.5 1.8 -3.2
v -1.9 1.8 -4.7
v 2.5 1.8 -4.7

# faces
f 4/2/1 2/2/1 1/2/1
f 4/3/1 3/3/1 2/3/1
f 5/3/1 3/3/1 4/3/1
f 6/2/1 4/2/1 1/2/1
f 6/2/1 5/2/1 4/2/1
f 7/2/1 5/2/1 6/2/1
f 11/2/1 9/2/1 8/2/1
f 12/3/1 10/3/1 9/3/1
f 12/2/1 9/2/1 11/2/1
f 13/3/1 10/3/1 12/3/1
f 17/2/1 15/2/1 14/2/1
f 18/3/1 16/3/1 15/3/1
f 18/2/1 15/2/1 17/2/1
f 19/3/1 16/3/1 18/3/1
f 23/2/1 21/2/1 20/2/1
f 24/3/1 22/3/1 21/3/1
f 24/2/1 21/2/1 23/2/1
f 25/3/1 22/3/1 24/3/1
f 29/2/1 27/2/1 26/2/1
f 30/3/1 28/3/1 27/3/1
f 30/2/1 27/2/1 29/2/1
f 31/3/1 28/3/1 30/3/1
f 34/2/1 33/2/1 32/2/1
f 35/2/1 33/2/1 34/2/1
f 38/2/1 37/2/1 36/2/1
f 39/2/1 37/2/1 38/2/1
f 43/2/1 41/2/1 40/2/1
f 43/3/1 42/3/1 41/3/1
f 44/3/1 42/3/1 43/3/1
f 45/2/1 43/2/1 40/2/1
f 47/2/1 45/2/1 40/2/1
f 47/3/1 46/3/1 45/3/1
f 48/3/1 46/3/1 47/3/1
f 49/2/1 47/2/1 40/2/1
f 50/2/1 47/2/1 49/2/1
f 51/2/2 52/2/2 54/2/2
f 52/3/2 53/3/2 55/3/2
f 54/2/2 52/2/2 55/2/2
f 55/3/2 53/3/2 56/3/2
f 57/2/2 58/2/2 60/2/2
f 58/3/2 59/3/2 61/3/2
f 60/2/2 58/2/2 61/2/2
f 61/3/2 59/3/2 62/3/2
f 63/2/2 64/2/2 66/2/2
f 64/3/2 65/3/2 67/3/2
f 66/2/2 64/2/2 67/2/2
f 67/3/2 65/3/2 68/3/2
f 69/2/2 70/2/2 72/2/2
f 70/3/2 71/3/2 73/3/2
f 72/2/2 70/2/2 73/2/2
f 73/3/2 71/3/2 74/3/2
f 75/2/2 76/2/2 78/2/2
f 76/3/2 77/3/2 78/3/2
f 78/3/2 77/3/2 79/3/2
f 75/2/2 78/2/2 80/2/2
f 75/2/2 80/2/2 82/2/2
f 80/3/2 81/3/2 82/3/2
f 82/3/2 81/3/2 83/3/2
f 75/2/2 82/2/2 84/2/2
f 84/2/2 82/2/2 85/2/2
f 86/2/2 87/2/2 88/2/2
f 88/2/2 87/2/2 89/2/2
f 90/2/2 91/2/2 92/2/2
f 92/2/2 91/2/2 93/2/2
f 94/2/2 95/2/2 97/2/2
f 95/3/2 96/3/2 97/3/2
f 97/3/2 96/3/2 98/3/2
f 94/2/2 97/2/2 99/2/2
f 97/2/2 98/2/2 99/2/2
f 99/2/2 98/2/2 100/2/2
f 103/2/3 102/2/3 101/2/3
f 104/2/3 102/2/3 103/2/3
f 105/2/3 102/2/3 104/2/3
f 106/2/3 102/2/3 105/2/3
f 107/2/3 102/2/3 106/2/3
f 108/2/3 102/2/3 107/2/3
f 110/3/3 105/3/3 104/3/3
f 111/3/3 105/3/3 110/3/3
f 112/3/3 107/3/3 106/3/3
f 113/3/3 107/3/3 112/3/3
f 114/2/3 102/2/3 108/2/3
f 115/2/3 113/2/3 112/2/3
f 115/2/3 114/2/3 113/2/3
f 115/2/3 111/2/3 110/2/3
f 115/2/3 110/2/3 109/2/3
f 115/2/3 112/2/3 111/2/3
f 116/2/3 102/2/3 114/2/3
f 116/2/3 114/2/3 115/2/3
f 118/2/3 102/2/3 116/2/3
f 119/2/3 118/2/3 117/2/3
f 120/2/3 102/2/3 118/2/3
f 120/2/3 118/2/3 119/2/3
f 125/2/3 122/2/3 121/2/3
f 126/2/3 122/2/3 125/2/3
f 127/1/3 126/1/3 125/1/3
f 128/1/3 126/1/3 127/1/3
f 129/2/3 128/2/3 127/2/3
f 130/2/3 128/2/3 129/2/3
f 131/2/3 124/2/3 123/2/3
f 132/2/3 124/2/3 131/2/3
f 134/2/3 102/2/3 120/2/3
f 135/2/3 134/2/3 133/2/3
f 136/2/3 102/2/3 134/2/3
f 136/2/3 134/2/3 135/2/3
f 141/3/3 138/3/3 137/3/3
f 142/3/3 138/3/3 141/3/3
f 143/3/3 140/3/3 139/3/3
f 144/3/3 140/3/3 143/3/3
f 145/3/3 141/3/3 137/3/3
f 146/3/3 138/3/3 142/3/3
f 147/3/3 145/3/3 137/3/3
f 148/3/3 138/3/3 146/3/3
f 149/3/3 147/3/3 137/3/3
f 150/3/3 138/3/3 148/3/3
f 151/3/3 143/3/3 139/3/3
f 152/3/3 140/3/3 144/3/3
f 153/3/3 149/3/3 137/3/3
f 153/3/3 150/3/3 149/3/3
f 154/3/3 138/3/3 150/3/3
f 154/3/3 150/3/3 153/3/3
f 155/3/3 152/3/3 151/3/3
f 155/3/3 151/3/3 139/3/3
f 156/3/3 140/3/3 152/3/3
f 156/3/3 152/3/3 155/3/3
f 159/3/3 158/3/3 157/3/3
f 160/3/3 158/3/3 159/3/3
f 167/3/3 162/3/3 161/3/3
f 168/3/3 162/3/3 167/3/3
f 169/3/3 164/3/3 163/3/3
f 170/3/3 164/3/3 169/3/3
f 171/3/3 166/3/3 165/3/3
f 172/3/3 166/3/3 171/3/3
f 173/3/4 174/3/4 176/3/4
f 174/2/4 175/2/4 177/2/4
f 176/3/4 174/3/4 177/3/4
f 177/2/4 175/2/4 179/2/4
f 178/3/4 179/3/4 180/3/4
f 180/3/4 179/3/4 181/3/4
f 181/3/4 179/3/4 183/3/4
f 182/3/4 183/3/4 184/3/4
f 179/2/4 175/2/4 185/2/4
f 184/3/4 183/3/4 185/3/4
f 183/3/4 179/3/4 185/3/4
f 185/2/4 175/2/4 186/2/4
f 195/2/5 188/2/5 187/2/5
f 196/2/5 188/2/5 195/2/5
f 197/2/5 190/2/5 189/2/5
f 198/2/5 190/2/5 197/2/5
f 199/2/5 192/2/5 191/2/5
f 200/2/5 192/2/5 199/2/5
f 201/2/5 194/2/5 193/2/5
f 202/2/5 194/2/5 201/2/5
f 203/3/5 196/3/5 195/3/5
f 204/3/5 198/3/5 197/3/5
f 205/3/5 203/3/5 195/3/5
f 205/3/5 204/3/5 203/3/5
f 206/3/5 198/3/5 204/3/5
f 206/3/5 204/3/5 205/3/5
f 207/3/5 200/3/5 199/3/5
f 208/3/5 200/3/5 207/3/5
f 209/3/5 202/3/5 201/3/5
f 210/3/5 202/3/5 209/3/5
f 213/3/5 212/3/5 211/3/5
f 214/3/5 212/3/5 213/3/5
f 215/3/5 214/3/5 213/3/5
f 216/3/5 214/3/5 215/3/5
f 219/3/5 218/3/5 217/3/5
f 220/3/5 218/3/5 219/3/5
f 225/2/5 222/2/5 221/2/5
f 226/1/5 223/1/5 222/1/5
f 226/2/5 222/2/5 225/2/5
f 227/2/5 224/2/5 223/2/5
f 227/1/5 223/1/5 226/1/5
f 228/2/5 224/2/5 227/2/5
f 231/3/5 230/3/5 229/3/5
f 232/3/5 230/3/5 231/3/5
f 233/3/5 232/3/5 231/3/5
f 234/3/5 232/3/5 233/3/5
f 237/3/5 236/3/5 235/3/5
f 238/3/5 236/3/5 237/3/5
f 241/2/5 240/2/5 239/2/5
f 242/2/5 240/2/5 241/2/5
f 249/2/5 244/2/5 243/2/5
f 250/2/5 244/2/5 249/2/5
f 251/2/5 246/2/5 245/2/5
f 252/2/5 246/2/5 251/2/5
f 253/2/5 248/2/5 247/2/5
f 254/2/5 248/2/5 253/2/5
f 255/2/5 250/2/5 249/2/5
f 256/2/5 250/2/5 255/2/5
f 257/2/5 252/2/5 251/2/5
f 258/2/5 252/2/5 257/2/5
f 259/3/6 260/3/6 261/3/6
f 261/3/6 260/3/6 262/3/6
f 261/3/6 262/3/6 263/3/6
f 263/3/6 262/3/6 264/3/6
f 265/2/6 266/2/6 269/2/6
f 266/1/6 267/1/6 270/1/6
f 269/2/6 266/2/6 270/2/6
f 267/2/6 268/2/6 271/2/6
f 270/1/6 267/1/6 271/1/6
f 271/2/6 268/2/6 272/2/6
f 273/3/6 274/3/6 275/3/6
f 275/3/6 274/3/6 276/3/6
f 277/3/6 278/3/6 279/3/6
f 279/3/6 278/3/6 280/3/6
f 279/3/6 280/3/6 281/3/6
f 281/3/6 280/3/6 282/3/6
f 283/2/6 284/2/6 285/2/6
f 285/2/6 284/2/6 286/2/6
f 287/2/6 288/2/6 289/2/6
f 289/2/6 288/2/6 290/2/6
