# MagicaVoxel @ Ephtracy

# group
o 

# material
mtllib Room1-11.mtl
usemtl palette

# normals
vn 1 0 0
vn -1 0 0
vn 0 0 -1
vn 0 0 1
vn 0 -1 0
vn 0 1 0

# texcoords
vt 0.353516 0.5
vt 0.564453 0.5
vt 0.720703 0.5
vt 0.787109 0.5

# verts
v -1.5 3.7 4.6
v -1.5 3.7 4.7
v -1.5 4 4.6
v -1.5 4 4.7
v -1.5 4.1 4.6
v -1.5 4.1 4.7
v -1.5 4.3 4.6
v -1.5 4.3 4.7
v -1.5 4.4 4.6
v -1.5 4.4 4.7
v -1.5 5.3 4.6
v -1.5 5.3 4.7
v -1.5 5.4 4.6
v -1.5 5.4 4.7
v -1.5 5.5 4.6
v -1.5 5.5 4.7
v -2.9 3.7 4.6
v -2.9 3.7 4.7
v -2.9 3.8 4.6
v -2.9 3.8 4.7
v -2.9 4.1 4.6
v -2.9 4.1 4.7
v -2.9 4.2 4.6
v -2.9 4.2 4.7
v -2.9 4.3 4.6
v -2.9 4.3 4.7
v -2.9 4.4 4.6
v -2.9 4.4 4.7
v -2.9 4.5 4.6
v -2.9 4.5 4.7
v -2.9 5.5 4.6
v -2.9 5.5 4.7
v -1.5 3.7 4.6
v -1.5 4 4.6
v -1.5 4.1 4.6
v -1.5 4.3 4.6
v -1.5 4.4 4.6
v -1.5 5.3 4.6
v -1.5 5.4 4.6
v -1.5 5.5 4.6
v -1.6 3.7 4.6
v -1.6 3.9 4.6
v -1.6 4.1 4.6
v -1.6 4.3 4.6
v -1.6 4.5 4.6
v -1.6 4.6 4.6
v -1.6 4.7 4.6
v -1.6 4.8 4.6
v -1.7 3.7 4.6
v -1.7 3.8 4.6
v -1.7 4 4.6
v -1.7 4.4 4.6
v -1.7 4.5 4.6
v -1.7 4.6 4.6
v -1.7 4.7 4.6
v -1.7 4.8 4.6
v -1.7 4.9 4.6
v -1.7 5.2 4.6
v -1.8 4 4.6
v -1.8 4.3 4.6
v -1.8 4.7 4.6
v -1.8 4.8 4.6
v -1.8 5 4.6
v -1.8 5.1 4.6
v -1.9 4.1 4.6
v -1.9 4.2 4.6
v -1.9 4.6 4.6
v -1.9 4.7 4.6
v -1.9 4.8 4.6
v -1.9 5.4 4.6
v -1.9 5.5 4.6
v -2 5.3 4.6
v -2 5.5 4.6
v -2.2 3.9 4.6
v -2.2 4 4.6
v -2.3 3.8 4.6
v -2.3 4.1 4.6
v -2.3 4.8 4.6
v -2.3 4.9 4.6
v -2.4 3.7 4.6
v -2.4 3.9 4.6
v -2.4 4.3 4.6
v -2.4 4.5 4.6
v -2.4 4.7 4.6
v -2.4 5 4.6
v -2.5 3.7 4.6
v -2.5 3.8 4.6
v -2.5 4.2 4.6
v -2.5 4.4 4.6
v -2.5 4.7 4.6
v -2.5 4.8 4.6
v -2.5 4.9 4.6
v -2.5 5 4.6
v -2.6 4 4.6
v -2.6 4.3 4.6
v -2.6 4.8 4.6
v -2.6 4.9 4.6
v -2.6 5.2 4.6
v -2.6 5.3 4.6
v -2.7 4.1 4.6
v -2.7 4.2 4.6
v -2.7 4.8 4.6
v -2.7 5 4.6
v -2.7 5.1 4.6
v -2.7 5.3 4.6
v -2.8 3.9 4.6
v -2.8 4 4.6
v -2.8 4.7 4.6
v -2.8 4.8 4.6
v -2.9 3.7 4.6
v -2.9 3.8 4.6
v -2.9 4.1 4.6
v -2.9 4.2 4.6
v -2.9 4.3 4.6
v -2.9 4.4 4.6
v -2.9 4.5 4.6
v -2.9 5.5 4.6
v -1.5 3.7 4.7
v -1.5 4 4.7
v -1.5 4.1 4.7
v -1.5 4.3 4.7
v -1.5 4.4 4.7
v -1.5 5.3 4.7
v -1.5 5.4 4.7
v -1.5 5.5 4.7
v -1.6 3.7 4.7
v -1.6 3.9 4.7
v -1.6 4.1 4.7
v -1.6 4.3 4.7
v -1.6 4.5 4.7
v -1.6 4.6 4.7
v -1.6 4.7 4.7
v -1.6 4.8 4.7
v -1.7 3.7 4.7
v -1.7 3.8 4.7
v -1.7 4 4.7
v -1.7 4.4 4.7
v -1.7 4.5 4.7
v -1.7 4.6 4.7
v -1.7 4.7 4.7
v -1.7 4.8 4.7
v -1.7 4.9 4.7
v -1.7 5.2 4.7
v -1.8 4 4.7
v -1.8 4.3 4.7
v -1.8 4.7 4.7
v -1.8 4.8 4.7
v -1.8 5 4.7
v -1.8 5.1 4.7
v -1.9 4.1 4.7
v -1.9 4.2 4.7
v -1.9 4.6 4.7
v -1.9 4.7 4.7
v -1.9 4.8 4.7
v -1.9 5.4 4.7
v -1.9 5.5 4.7
v -2 5.3 4.7
v -2 5.5 4.7
v -2.2 3.9 4.7
v -2.2 4 4.7
v -2.3 3.8 4.7
v -2.3 4.1 4.7
v -2.3 4.8 4.7
v -2.3 4.9 4.7
v -2.4 3.7 4.7
v -2.4 3.9 4.7
v -2.4 4.3 4.7
v -2.4 4.5 4.7
v -2.4 4.7 4.7
v -2.4 5 4.7
v -2.5 3.7 4.7
v -2.5 3.8 4.7
v -2.5 4.2 4.7
v -2.5 4.4 4.7
v -2.5 4.7 4.7
v -2.5 4.8 4.7
v -2.5 4.9 4.7
v -2.5 5 4.7
v -2.6 4 4.7
v -2.6 4.3 4.7
v -2.6 4.8 4.7
v -2.6 4.9 4.7
v -2.6 5.2 4.7
v -2.6 5.3 4.7
v -2.7 4.1 4.7
v -2.7 4.2 4.7
v -2.7 4.8 4.7
v -2.7 5 4.7
v -2.7 5.1 4.7
v -2.7 5.3 4.7
v -2.8 3.9 4.7
v -2.8 4 4.7
v -2.8 4.7 4.7
v -2.8 4.8 4.7
v -2.9 3.7 4.7
v -2.9 3.8 4.7
v -2.9 4.1 4.7
v -2.9 4.2 4.7
v -2.9 4.3 4.7
v -2.9 4.4 4.7
v -2.9 4.5 4.7
v -2.9 5.5 4.7
v -1.5 3.7 4.6
v -1.6 3.7 4.6
v -1.7 3.7 4.6
v -2.4 3.7 4.6
v -2.5 3.7 4.6
v -2.9 3.7 4.6
v -1.5 3.7 4.7
v -1.6 3.7 4.7
v -1.7 3.7 4.7
v -2.4 3.7 4.7
v -2.5 3.7 4.7
v -2.9 3.7 4.7
v -1.5 5.5 4.6
v -1.9 5.5 4.6
v -2 5.5 4.6
v -2.9 5.5 4.6
v -1.5 5.5 4.7
v -1.9 5.5 4.7
v -2 5.5 4.7
v -2.9 5.5 4.7

# faces
f 3/4/1 2/4/1 1/4/1
f 4/4/1 2/4/1 3/4/1
f 5/3/1 4/3/1 3/3/1
f 6/3/1 4/3/1 5/3/1
f 7/4/1 6/4/1 5/4/1
f 8/4/1 6/4/1 7/4/1
f 9/3/1 8/3/1 7/3/1
f 10/3/1 8/3/1 9/3/1
f 11/4/1 10/4/1 9/4/1
f 12/4/1 10/4/1 11/4/1
f 13/3/1 12/3/1 11/3/1
f 14/3/1 12/3/1 13/3/1
f 15/4/1 14/4/1 13/4/1
f 16/4/1 14/4/1 15/4/1
f 17/4/2 18/4/2 19/4/2
f 19/4/2 18/4/2 20/4/2
f 19/3/2 20/3/2 21/3/2
f 21/3/2 20/3/2 22/3/2
f 21/4/2 22/4/2 23/4/2
f 23/4/2 22/4/2 24/4/2
f 23/3/2 24/3/2 25/3/2
f 25/3/2 24/3/2 26/3/2
f 25/4/2 26/4/2 27/4/2
f 27/4/2 26/4/2 28/4/2
f 27/3/2 28/3/2 29/3/2
f 29/3/2 28/3/2 30/3/2
f 29/4/2 30/4/2 31/4/2
f 31/4/2 30/4/2 32/4/2
f 41/4/3 34/4/3 33/4/3
f 42/4/3 34/4/3 41/4/3
f 43/3/3 35/3/3 34/3/3
f 43/4/3 36/4/3 35/4/3
f 44/3/3 37/3/3 36/3/3
f 44/4/3 36/4/3 43/4/3
f 45/4/3 38/4/3 37/4/3
f 46/4/3 38/4/3 45/4/3
f 47/4/3 38/4/3 46/4/3
f 48/4/3 38/4/3 47/4/3
f 49/3/3 42/3/3 41/3/3
f 50/3/3 42/3/3 49/3/3
f 51/4/3 34/4/3 42/4/3
f 51/3/3 43/3/3 34/3/3
f 51/3/3 44/3/3 43/3/3
f 52/3/3 37/3/3 44/3/3
f 52/3/3 44/3/3 51/3/3
f 52/4/3 45/4/3 37/4/3
f 53/1/3 46/1/3 45/1/3
f 53/4/3 45/4/3 52/4/3
f 54/3/3 47/3/3 46/3/3
f 54/1/3 46/1/3 53/1/3
f 55/2/3 48/2/3 47/2/3
f 55/3/3 47/3/3 54/3/3
f 56/4/3 38/4/3 48/4/3
f 56/2/3 48/2/3 55/2/3
f 57/4/3 38/4/3 56/4/3
f 58/4/3 38/4/3 57/4/3
f 59/4/3 51/4/3 42/4/3
f 59/4/3 54/4/3 53/4/3
f 59/4/3 52/4/3 51/4/3
f 59/4/3 53/4/3 52/4/3
f 60/4/3 54/4/3 59/4/3
f 61/3/3 55/3/3 54/3/3
f 61/3/3 56/3/3 55/3/3
f 62/4/3 57/4/3 56/4/3
f 62/3/3 56/3/3 61/3/3
f 63/3/3 58/3/3 57/3/3
f 64/3/3 58/3/3 63/3/3
f 65/3/3 60/3/3 59/3/3
f 66/3/3 60/3/3 65/3/3
f 67/4/3 54/4/3 60/4/3
f 67/3/3 61/3/3 54/3/3
f 68/2/3 62/2/3 61/2/3
f 68/3/3 61/3/3 67/3/3
f 69/4/3 57/4/3 62/4/3
f 69/2/3 62/2/3 68/2/3
f 70/4/3 40/4/3 39/4/3
f 70/3/3 39/3/3 38/3/3
f 71/4/3 40/4/3 70/4/3
f 72/4/3 38/4/3 58/4/3
f 72/3/3 70/3/3 38/3/3
f 72/3/3 71/3/3 70/3/3
f 73/3/3 71/3/3 72/3/3
f 74/3/3 42/3/3 50/3/3
f 74/4/3 59/4/3 42/4/3
f 75/3/3 65/3/3 59/3/3
f 75/4/3 59/4/3 74/4/3
f 76/4/3 50/4/3 49/4/3
f 76/3/3 74/3/3 50/3/3
f 76/3/3 75/3/3 74/3/3
f 77/3/3 65/3/3 75/3/3
f 77/3/3 75/3/3 76/3/3
f 77/4/3 66/4/3 65/4/3
f 78/4/3 57/4/3 69/4/3
f 78/3/3 69/3/3 68/3/3
f 79/3/3 63/3/3 57/3/3
f 79/4/3 57/4/3 78/4/3
f 80/4/3 76/4/3 49/4/3
f 80/4/3 77/4/3 76/4/3
f 81/4/3 77/4/3 80/4/3
f 82/3/3 60/3/3 66/3/3
f 82/4/3 68/4/3 67/4/3
f 82/4/3 67/4/3 60/4/3
f 83/4/3 68/4/3 82/4/3
f 84/3/3 79/3/3 78/3/3
f 84/4/3 68/4/3 83/4/3
f 84/3/3 78/3/3 68/3/3
f 85/3/3 63/3/3 79/3/3
f 85/3/3 79/3/3 84/3/3
f 85/4/3 64/4/3 63/4/3
f 86/3/3 81/3/3 80/3/3
f 87/3/3 81/3/3 86/3/3
f 88/4/3 66/4/3 77/4/3
f 88/4/3 77/4/3 81/4/3
f 88/3/3 83/3/3 82/3/3
f 88/3/3 82/3/3 66/3/3
f 89/3/3 83/3/3 88/3/3
f 90/4/3 84/4/3 83/4/3
f 90/4/3 85/4/3 84/4/3
f 91/4/3 85/4/3 90/4/3
f 92/4/3 85/4/3 91/4/3
f 93/4/3 64/4/3 85/4/3
f 93/4/3 85/4/3 92/4/3
f 94/4/3 89/4/3 88/4/3
f 94/4/3 88/4/3 81/4/3
f 95/4/3 89/4/3 94/4/3
f 96/4/3 92/4/3 91/4/3
f 96/2/3 91/2/3 90/2/3
f 97/2/3 93/2/3 92/2/3
f 97/4/3 92/4/3 96/4/3
f 98/4/3 72/4/3 58/4/3
f 98/3/3 58/3/3 64/3/3
f 98/4/3 73/4/3 72/4/3
f 99/4/3 73/4/3 98/4/3
f 100/3/3 95/3/3 94/3/3
f 101/3/3 95/3/3 100/3/3
f 102/2/3 97/2/3 96/2/3
f 102/2/3 96/2/3 90/2/3
f 103/2/3 93/2/3 97/2/3
f 103/2/3 97/2/3 102/2/3
f 103/4/3 64/4/3 93/4/3
f 104/3/3 98/3/3 64/3/3
f 104/4/3 64/4/3 103/4/3
f 104/3/3 99/3/3 98/3/3
f 105/4/3 73/4/3 99/4/3
f 105/3/3 99/3/3 104/3/3
f 106/3/3 81/3/3 87/3/3
f 106/4/3 94/4/3 81/4/3
f 107/3/3 100/3/3 94/3/3
f 107/4/3 94/4/3 106/4/3
f 108/2/3 102/2/3 90/2/3
f 108/4/3 90/4/3 83/4/3
f 109/4/3 105/4/3 104/4/3
f 109/2/3 102/2/3 108/2/3
f 109/4/3 104/4/3 103/4/3
f 109/4/3 103/4/3 102/4/3
f 110/4/3 87/4/3 86/4/3
f 111/3/3 106/3/3 87/3/3
f 111/4/3 87/4/3 110/4/3
f 111/3/3 107/3/3 106/3/3
f 112/3/3 100/3/3 107/3/3
f 112/3/3 107/3/3 111/3/3
f 112/4/3 101/4/3 100/4/3
f 113/3/3 95/3/3 101/3/3
f 113/4/3 101/4/3 112/4/3
f 114/4/3 89/4/3 95/4/3
f 114/3/3 95/3/3 113/3/3
f 115/3/3 83/3/3 89/3/3
f 115/4/3 89/4/3 114/4/3
f 116/4/3 108/4/3 83/4/3
f 116/3/3 83/3/3 115/3/3
f 116/4/3 109/4/3 108/4/3
f 117/4/3 73/4/3 105/4/3
f 117/4/3 109/4/3 116/4/3
f 117/4/3 105/4/3 109/4/3
f 118/4/4 119/4/4 126/4/4
f 126/4/4 119/4/4 127/4/4
f 119/3/4 120/3/4 128/3/4
f 120/4/4 121/4/4 128/4/4
f 121/3/4 122/3/4 129/3/4
f 128/4/4 121/4/4 129/4/4
f 122/4/4 123/4/4 130/4/4
f 130/4/4 123/4/4 131/4/4
f 131/4/4 123/4/4 132/4/4
f 132/4/4 123/4/4 133/4/4
f 126/3/4 127/3/4 134/3/4
f 134/3/4 127/3/4 135/3/4
f 127/4/4 119/4/4 136/4/4
f 119/3/4 128/3/4 136/3/4
f 128/3/4 129/3/4 136/3/4
f 129/3/4 122/3/4 137/3/4
f 136/3/4 129/3/4 137/3/4
f 122/4/4 130/4/4 137/4/4
f 130/1/4 131/1/4 138/1/4
f 137/4/4 130/4/4 138/4/4
f 131/3/4 132/3/4 139/3/4
f 138/1/4 131/1/4 139/1/4
f 132/2/4 133/2/4 140/2/4
f 139/3/4 132/3/4 140/3/4
f 133/4/4 123/4/4 141/4/4
f 140/2/4 133/2/4 141/2/4
f 141/4/4 123/4/4 142/4/4
f 142/4/4 123/4/4 143/4/4
f 127/4/4 136/4/4 144/4/4
f 138/4/4 139/4/4 144/4/4
f 136/4/4 137/4/4 144/4/4
f 137/4/4 138/4/4 144/4/4
f 144/4/4 139/4/4 145/4/4
f 139/3/4 140/3/4 146/3/4
f 140/3/4 141/3/4 146/3/4
f 141/4/4 142/4/4 147/4/4
f 146/3/4 141/3/4 147/3/4
f 142/3/4 143/3/4 148/3/4
f 148/3/4 143/3/4 149/3/4
f 144/3/4 145/3/4 150/3/4
f 150/3/4 145/3/4 151/3/4
f 145/4/4 139/4/4 152/4/4
f 139/3/4 146/3/4 152/3/4
f 146/2/4 147/2/4 153/2/4
f 152/3/4 146/3/4 153/3/4
f 147/4/4 142/4/4 154/4/4
f 153/2/4 147/2/4 154/2/4
f 124/4/4 125/4/4 155/4/4
f 123/3/4 124/3/4 155/3/4
f 155/4/4 125/4/4 156/4/4
f 143/4/4 123/4/4 157/4/4
f 123/3/4 155/3/4 157/3/4
f 155/3/4 156/3/4 157/3/4
f 157/3/4 156/3/4 158/3/4
f 135/3/4 127/3/4 159/3/4
f 127/4/4 144/4/4 159/4/4
f 144/3/4 150/3/4 160/3/4
f 159/4/4 144/4/4 160/4/4
f 134/4/4 135/4/4 161/4/4
f 135/3/4 159/3/4 161/3/4
f 159/3/4 160/3/4 161/3/4
f 160/3/4 150/3/4 162/3/4
f 161/3/4 160/3/4 162/3/4
f 150/4/4 151/4/4 162/4/4
f 154/4/4 142/4/4 163/4/4
f 153/3/4 154/3/4 163/3/4
f 142/3/4 148/3/4 164/3/4
f 163/4/4 142/4/4 164/4/4
f 134/4/4 161/4/4 165/4/4
f 161/4/4 162/4/4 165/4/4
f 165/4/4 162/4/4 166/4/4
f 151/3/4 145/3/4 167/3/4
f 152/4/4 153/4/4 167/4/4
f 145/4/4 152/4/4 167/4/4
f 167/4/4 153/4/4 168/4/4
f 163/3/4 164/3/4 169/3/4
f 168/4/4 153/4/4 169/4/4
f 153/3/4 163/3/4 169/3/4
f 164/3/4 148/3/4 170/3/4
f 169/3/4 164/3/4 170/3/4
f 148/4/4 149/4/4 170/4/4
f 165/3/4 166/3/4 171/3/4
f 171/3/4 166/3/4 172/3/4
f 162/4/4 151/4/4 173/4/4
f 166/4/4 162/4/4 173/4/4
f 167/3/4 168/3/4 173/3/4
f 151/3/4 167/3/4 173/3/4
f 173/3/4 168/3/4 174/3/4
f 168/4/4 169/4/4 175/4/4
f 169/4/4 170/4/4 175/4/4
f 175/4/4 170/4/4 176/4/4
f 176/4/4 170/4/4 177/4/4
f 170/4/4 149/4/4 178/4/4
f 177/4/4 170/4/4 178/4/4
f 173/4/4 174/4/4 179/4/4
f 166/4/4 173/4/4 179/4/4
f 179/4/4 174/4/4 180/4/4
f 176/4/4 177/4/4 181/4/4
f 175/2/4 176/2/4 181/2/4
f 177/2/4 178/2/4 182/2/4
f 181/4/4 177/4/4 182/4/4
f 143/4/4 157/4/4 183/4/4
f 149/3/4 143/3/4 183/3/4
f 157/4/4 158/4/4 183/4/4
f 183/4/4 158/4/4 184/4/4
f 179/3/4 180/3/4 185/3/4
f 185/3/4 180/3/4 186/3/4
f 181/2/4 182/2/4 187/2/4
f 175/2/4 181/2/4 187/2/4
f 182/2/4 178/2/4 188/2/4
f 187/2/4 182/2/4 188/2/4
f 178/4/4 149/4/4 188/4/4
f 149/3/4 183/3/4 189/3/4
f 188/4/4 149/4/4 189/4/4
f 183/3/4 184/3/4 189/3/4
f 184/4/4 158/4/4 190/4/4
f 189/3/4 184/3/4 190/3/4
f 172/3/4 166/3/4 191/3/4
f 166/4/4 179/4/4 191/4/4
f 179/3/4 185/3/4 192/3/4
f 191/4/4 179/4/4 192/4/4
f 175/2/4 187/2/4 193/2/4
f 168/4/4 175/4/4 193/4/4
f 189/4/4 190/4/4 194/4/4
f 193/2/4 187/2/4 194/2/4
f 188/4/4 189/4/4 194/4/4
f 187/4/4 188/4/4 194/4/4
f 171/4/4 172/4/4 195/4/4
f 172/3/4 191/3/4 196/3/4
f 195/4/4 172/4/4 196/4/4
f 191/3/4 192/3/4 196/3/4
f 192/3/4 185/3/4 197/3/4
f 196/3/4 192/3/4 197/3/4
f 185/4/4 186/4/4 197/4/4
f 186/3/4 180/3/4 198/3/4
f 197/4/4 186/4/4 198/4/4
f 180/4/4 174/4/4 199/4/4
f 198/3/4 180/3/4 199/3/4
f 174/3/4 168/3/4 200/3/4
f 199/4/4 174/4/4 200/4/4
f 168/4/4 193/4/4 201/4/4
f 200/3/4 168/3/4 201/3/4
f 193/4/4 194/4/4 201/4/4
f 190/4/4 158/4/4 202/4/4
f 201/4/4 194/4/4 202/4/4
f 194/4/4 190/4/4 202/4/4
f 209/4/5 204/4/5 203/4/5
f 210/3/5 205/3/5 204/3/5
f 210/4/5 204/4/5 209/4/5
f 211/4/5 206/4/5 205/4/5
f 211/3/5 205/3/5 210/3/5
f 212/3/5 207/3/5 206/3/5
f 212/4/5 206/4/5 211/4/5
f 213/4/5 208/4/5 207/4/5
f 213/3/5 207/3/5 212/3/5
f 214/4/5 208/4/5 213/4/5
f 215/4/6 216/4/6 219/4/6
f 216/3/6 217/3/6 220/3/6
f 219/4/6 216/4/6 220/4/6
f 217/4/6 218/4/6 221/4/6
f 220/3/6 217/3/6 221/3/6
f 221/4/6 218/4/6 222/4/6
