# MagicaVoxel @ Ephtracy

# group
o 

# material
mtllib Room1-15.mtl
usemtl palette

# normals
vn -1 0 0
vn 1 0 0
vn 0 0 1
vn 0 0 -1
vn 0 -1 0
vn 0 1 0

# texcoords
vt 0.345703 0.5
vt 0.357422 0.5
vt 0.361328 0.5
vt 0.501953 0.5
vt 0.564453 0.5
vt 0.591797 0.5
vt 0.638672 0.5
vt 0.650391 0.5

# verts
v -0.3 3.9 -4.2
v -0.3 3.9 -4.3
v -0.3 5.7 -4.2
v -0.3 5.7 -4.3
v 1.1 3.9 -4.2
v 1.1 3.9 -4.3
v 1.1 5.7 -4.2
v 1.1 5.7 -4.3
v -0.3 3.9 -4.2
v -0.3 5.7 -4.2
v -0.1 4.1 -4.2
v -0.1 4.2 -4.2
v -0.1 4.3 -4.2
v -0.1 4.4 -4.2
v 0 4.1 -4.2
v 0 4.2 -4.2
v 0 4.3 -4.2
v 0 4.4 -4.2
v 0.1 4.1 -4.2
v 0.1 4.2 -4.2
v 0.1 4.3 -4.2
v 0.1 4.4 -4.2
v 0.1 4.7 -4.2
v 0.1 4.9 -4.2
v 0.2 4.4 -4.2
v 0.2 4.5 -4.2
v 0.2 4.8 -4.2
v 0.2 4.9 -4.2
v 0.2 5.1 -4.2
v 0.2 5.2 -4.2
v 0.2 5.3 -4.2
v 0.2 5.4 -4.2
v 0.2 5.5 -4.2
v 0.2 5.6 -4.2
v 0.3 4.2 -4.2
v 0.3 4.3 -4.2
v 0.3 4.6 -4.2
v 0.3 4.7 -4.2
v 0.3 4.8 -4.2
v 0.3 4.9 -4.2
v 0.3 5.1 -4.2
v 0.3 5.2 -4.2
v 0.3 5.3 -4.2
v 0.3 5.4 -4.2
v 0.3 5.5 -4.2
v 0.3 5.6 -4.2
v 0.4 4.2 -4.2
v 0.4 4.3 -4.2
v 0.4 4.4 -4.2
v 0.4 4.5 -4.2
v 0.4 4.6 -4.2
v 0.4 4.9 -4.2
v 0.4 5 -4.2
v 0.4 5.3 -4.2
v 0.5 4.1 -4.2
v 0.5 4.4 -4.2
v 0.5 5.1 -4.2
v 0.5 5.2 -4.2
v 0.5 5.3 -4.2
v 0.5 5.4 -4.2
v 0.6 4.2 -4.2
v 0.6 4.3 -4.2
v 0.6 4.4 -4.2
v 0.6 4.5 -4.2
v 0.6 4.6 -4.2
v 0.6 4.7 -4.2
v 0.6 5.1 -4.2
v 0.6 5.2 -4.2
v 0.7 4.2 -4.2
v 0.7 4.3 -4.2
v 0.7 4.4 -4.2
v 0.7 4.5 -4.2
v 0.7 4.6 -4.2
v 0.7 4.7 -4.2
v 0.7 5.3 -4.2
v 0.7 5.4 -4.2
v 0.8 5 -4.2
v 0.8 5.1 -4.2
v 0.8 5.2 -4.2
v 0.8 5.3 -4.2
v 0.9 5 -4.2
v 0.9 5.1 -4.2
v 0.9 5.2 -4.2
v 0.9 5.3 -4.2
v 1 5 -4.2
v 1 5.1 -4.2
v 1 5.2 -4.2
v 1 5.3 -4.2
v 1.1 3.9 -4.2
v 1.1 5.7 -4.2
v -0.3 3.9 -4.3
v -0.3 5.7 -4.3
v -0.1 4.1 -4.3
v -0.1 4.2 -4.3
v -0.1 4.3 -4.3
v -0.1 4.4 -4.3
v 0 4.1 -4.3
v 0 4.2 -4.3
v 0 4.3 -4.3
v 0 4.4 -4.3
v 0.1 4.1 -4.3
v 0.1 4.2 -4.3
v 0.1 4.3 -4.3
v 0.1 4.4 -4.3
v 0.1 4.7 -4.3
v 0.1 4.9 -4.3
v 0.2 4.4 -4.3
v 0.2 4.5 -4.3
v 0.2 4.8 -4.3
v 0.2 4.9 -4.3
v 0.2 5.1 -4.3
v 0.2 5.2 -4.3
v 0.2 5.3 -4.3
v 0.2 5.4 -4.3
v 0.2 5.5 -4.3
v 0.2 5.6 -4.3
v 0.3 4.2 -4.3
v 0.3 4.3 -4.3
v 0.3 4.6 -4.3
v 0.3 4.7 -4.3
v 0.3 4.8 -4.3
v 0.3 4.9 -4.3
v 0.3 5.1 -4.3
v 0.3 5.2 -4.3
v 0.3 5.3 -4.3
v 0.3 5.4 -4.3
v 0.3 5.5 -4.3
v 0.3 5.6 -4.3
v 0.4 4.2 -4.3
v 0.4 4.3 -4.3
v 0.4 4.4 -4.3
v 0.4 4.5 -4.3
v 0.4 4.6 -4.3
v 0.4 4.9 -4.3
v 0.4 5 -4.3
v 0.4 5.3 -4.3
v 0.5 4.1 -4.3
v 0.5 4.4 -4.3
v 0.5 5.1 -4.3
v 0.5 5.2 -4.3
v 0.5 5.3 -4.3
v 0.5 5.4 -4.3
v 0.6 4.2 -4.3
v 0.6 4.3 -4.3
v 0.6 4.4 -4.3
v 0.6 4.5 -4.3
v 0.6 4.6 -4.3
v 0.6 4.7 -4.3
v 0.6 5.1 -4.3
v 0.6 5.2 -4.3
v 0.7 4.2 -4.3
v 0.7 4.3 -4.3
v 0.7 4.4 -4.3
v 0.7 4.5 -4.3
v 0.7 4.6 -4.3
v 0.7 4.7 -4.3
v 0.7 5.3 -4.3
v 0.7 5.4 -4.3
v 0.8 5 -4.3
v 0.8 5.1 -4.3
v 0.8 5.2 -4.3
v 0.8 5.3 -4.3
v 0.9 5 -4.3
v 0.9 5.1 -4.3
v 0.9 5.2 -4.3
v 0.9 5.3 -4.3
v 1 5 -4.3
v 1 5.1 -4.3
v 1 5.2 -4.3
v 1 5.3 -4.3
v 1.1 3.9 -4.3
v 1.1 5.7 -4.3
v -0.3 3.9 -4.2
v 1.1 3.9 -4.2
v -0.3 3.9 -4.3
v 1.1 3.9 -4.3
v -0.3 5.7 -4.2
v 1.1 5.7 -4.2
v -0.3 5.7 -4.3
v 1.1 5.7 -4.3

# faces
f 3/6/1 2/6/1 1/6/1
f 4/6/1 2/6/1 3/6/1
f 5/6/2 6/6/2 7/6/2
f 7/6/2 6/6/2 8/6/2
f 11/6/3 10/6/3 9/6/3
f 12/6/3 10/6/3 11/6/3
f 13/6/3 10/6/3 12/6/3
f 14/6/3 10/6/3 13/6/3
f 15/6/3 11/6/3 9/6/3
f 15/7/3 12/7/3 11/7/3
f 16/6/3 13/6/3 12/6/3
f 16/7/3 12/7/3 15/7/3
f 17/7/3 14/7/3 13/7/3
f 17/6/3 13/6/3 16/6/3
f 18/6/3 10/6/3 14/6/3
f 18/7/3 14/7/3 17/7/3
f 19/6/3 16/6/3 15/6/3
f 19/6/3 15/6/3 9/6/3
f 20/7/3 17/7/3 16/7/3
f 20/6/3 16/6/3 19/6/3
f 21/6/3 18/6/3 17/6/3
f 21/7/3 17/7/3 20/7/3
f 22/6/3 10/6/3 18/6/3
f 22/6/3 18/6/3 21/6/3
f 23/6/3 10/6/3 22/6/3
f 24/6/3 10/6/3 23/6/3
f 25/8/3 21/8/3 20/8/3
f 25/8/3 20/8/3 19/8/3
f 25/8/3 22/8/3 21/8/3
f 25/6/3 23/6/3 22/6/3
f 26/6/3 23/6/3 25/6/3
f 27/5/3 24/5/3 23/5/3
f 28/6/3 10/6/3 24/6/3
f 28/5/3 24/5/3 27/5/3
f 29/6/3 10/6/3 28/6/3
f 30/6/3 10/6/3 29/6/3
f 31/6/3 10/6/3 30/6/3
f 32/6/3 10/6/3 31/6/3
f 33/6/3 10/6/3 32/6/3
f 34/6/3 10/6/3 33/6/3
f 35/8/3 25/8/3 19/8/3
f 36/8/3 25/8/3 35/8/3
f 37/6/3 23/6/3 26/6/3
f 38/5/3 27/5/3 23/5/3
f 38/6/3 23/6/3 37/6/3
f 39/6/3 28/6/3 27/6/3
f 39/5/3 27/5/3 38/5/3
f 39/6/3 29/6/3 28/6/3
f 40/6/3 29/6/3 39/6/3
f 41/4/3 30/4/3 29/4/3
f 41/6/3 29/6/3 40/6/3
f 42/6/3 31/6/3 30/6/3
f 42/4/3 30/4/3 41/4/3
f 43/4/3 32/4/3 31/4/3
f 43/6/3 31/6/3 42/6/3
f 44/6/3 33/6/3 32/6/3
f 44/4/3 32/4/3 43/4/3
f 45/4/3 34/4/3 33/4/3
f 45/6/3 33/6/3 44/6/3
f 46/6/3 10/6/3 34/6/3
f 46/4/3 34/4/3 45/4/3
f 47/5/3 36/5/3 35/5/3
f 47/8/3 35/8/3 19/8/3
f 48/8/3 25/8/3 36/8/3
f 48/5/3 36/5/3 47/5/3
f 49/7/3 26/7/3 25/7/3
f 49/8/3 25/8/3 48/8/3
f 50/6/3 37/6/3 26/6/3
f 50/7/3 26/7/3 49/7/3
f 51/5/3 38/5/3 37/5/3
f 51/6/3 37/6/3 50/6/3
f 51/5/3 40/5/3 39/5/3
f 51/5/3 39/5/3 38/5/3
f 52/6/3 45/6/3 44/6/3
f 52/5/3 40/5/3 51/5/3
f 52/6/3 46/6/3 45/6/3
f 52/6/3 44/6/3 43/6/3
f 52/6/3 43/6/3 42/6/3
f 52/6/3 42/6/3 41/6/3
f 52/6/3 41/6/3 40/6/3
f 53/6/3 46/6/3 52/6/3
f 54/6/3 46/6/3 53/6/3
f 55/6/3 19/6/3 9/6/3
f 55/8/3 49/8/3 48/8/3
f 55/8/3 47/8/3 19/8/3
f 55/8/3 48/8/3 47/8/3
f 56/6/3 53/6/3 52/6/3
f 56/8/3 49/8/3 55/8/3
f 56/6/3 51/6/3 50/6/3
f 56/6/3 52/6/3 51/6/3
f 56/6/3 50/6/3 49/6/3
f 57/2/3 54/2/3 53/2/3
f 58/2/3 54/2/3 57/2/3
f 59/6/3 46/6/3 54/6/3
f 59/2/3 54/2/3 58/2/3
f 60/6/3 46/6/3 59/6/3
f 61/6/3 56/6/3 55/6/3
f 62/6/3 56/6/3 61/6/3
f 63/6/3 53/6/3 56/6/3
f 63/6/3 56/6/3 62/6/3
f 64/6/3 53/6/3 63/6/3
f 65/6/3 53/6/3 64/6/3
f 66/6/3 53/6/3 65/6/3
f 67/1/3 58/1/3 57/1/3
f 67/2/3 57/2/3 53/2/3
f 68/2/3 59/2/3 58/2/3
f 68/1/3 58/1/3 67/1/3
f 69/4/3 62/4/3 61/4/3
f 69/6/3 61/6/3 55/6/3
f 70/6/3 63/6/3 62/6/3
f 70/4/3 62/4/3 69/4/3
f 71/4/3 64/4/3 63/4/3
f 71/6/3 63/6/3 70/6/3
f 72/6/3 65/6/3 64/6/3
f 72/4/3 64/4/3 71/4/3
f 73/4/3 66/4/3 65/4/3
f 73/6/3 65/6/3 72/6/3
f 74/6/3 53/6/3 66/6/3
f 74/4/3 66/4/3 73/4/3
f 75/2/3 59/2/3 68/2/3
f 75/3/3 60/3/3 59/3/3
f 75/2/3 68/2/3 67/2/3
f 76/6/3 46/6/3 60/6/3
f 76/3/3 60/3/3 75/3/3
f 77/6/3 73/6/3 72/6/3
f 77/6/3 53/6/3 74/6/3
f 77/2/3 75/2/3 67/2/3
f 77/6/3 70/6/3 69/6/3
f 77/6/3 72/6/3 71/6/3
f 77/6/3 71/6/3 70/6/3
f 77/6/3 74/6/3 73/6/3
f 77/2/3 67/2/3 53/2/3
f 78/2/3 75/2/3 77/2/3
f 79/2/3 75/2/3 78/2/3
f 80/6/3 76/6/3 75/6/3
f 80/2/3 75/2/3 79/2/3
f 81/6/3 77/6/3 69/6/3
f 81/6/3 78/6/3 77/6/3
f 82/3/3 79/3/3 78/3/3
f 82/6/3 78/6/3 81/6/3
f 83/6/3 80/6/3 79/6/3
f 83/3/3 79/3/3 82/3/3
f 84/6/3 76/6/3 80/6/3
f 84/6/3 80/6/3 83/6/3
f 85/6/3 81/6/3 69/6/3
f 85/3/3 82/3/3 81/3/3
f 86/6/3 83/6/3 82/6/3
f 86/3/3 82/3/3 85/3/3
f 87/3/3 84/3/3 83/3/3
f 87/6/3 83/6/3 86/6/3
f 88/6/3 76/6/3 84/6/3
f 88/3/3 84/3/3 87/3/3
f 89/6/3 87/6/3 86/6/3
f 89/6/3 55/6/3 9/6/3
f 89/6/3 88/6/3 87/6/3
f 89/6/3 86/6/3 85/6/3
f 89/6/3 85/6/3 69/6/3
f 89/6/3 69/6/3 55/6/3
f 90/6/3 46/6/3 76/6/3
f 90/6/3 88/6/3 89/6/3
f 90/6/3 76/6/3 88/6/3
f 90/6/3 10/6/3 46/6/3
f 91/6/4 92/6/4 93/6/4
f 93/6/4 92/6/4 94/6/4
f 94/6/4 92/6/4 95/6/4
f 95/6/4 92/6/4 96/6/4
f 91/6/4 93/6/4 97/6/4
f 93/7/4 94/7/4 97/7/4
f 94/6/4 95/6/4 98/6/4
f 97/7/4 94/7/4 98/7/4
f 95/7/4 96/7/4 99/7/4
f 98/6/4 95/6/4 99/6/4
f 96/6/4 92/6/4 100/6/4
f 99/7/4 96/7/4 100/7/4
f 97/6/4 98/6/4 101/6/4
f 91/6/4 97/6/4 101/6/4
f 98/7/4 99/7/4 102/7/4
f 101/6/4 98/6/4 102/6/4
f 99/6/4 100/6/4 103/6/4
f 102/7/4 99/7/4 103/7/4
f 100/6/4 92/6/4 104/6/4
f 103/6/4 100/6/4 104/6/4
f 104/6/4 92/6/4 105/6/4
f 105/6/4 92/6/4 106/6/4
f 102/8/4 103/8/4 107/8/4
f 101/8/4 102/8/4 107/8/4
f 103/8/4 104/8/4 107/8/4
f 104/6/4 105/6/4 107/6/4
f 107/6/4 105/6/4 108/6/4
f 105/5/4 106/5/4 109/5/4
f 106/6/4 92/6/4 110/6/4
f 109/5/4 106/5/4 110/5/4
f 110/6/4 92/6/4 111/6/4
f 111/6/4 92/6/4 112/6/4
f 112/6/4 92/6/4 113/6/4
f 113/6/4 92/6/4 114/6/4
f 114/6/4 92/6/4 115/6/4
f 115/6/4 92/6/4 116/6/4
f 101/8/4 107/8/4 117/8/4
f 117/8/4 107/8/4 118/8/4
f 108/6/4 105/6/4 119/6/4
f 105/5/4 109/5/4 120/5/4
f 119/6/4 105/6/4 120/6/4
f 109/6/4 110/6/4 121/6/4
f 120/5/4 109/5/4 121/5/4
f 110/6/4 111/6/4 121/6/4
f 121/6/4 111/6/4 122/6/4
f 111/4/4 112/4/4 123/4/4
f 122/6/4 111/6/4 123/6/4
f 112/6/4 113/6/4 124/6/4
f 123/4/4 112/4/4 124/4/4
f 113/4/4 114/4/4 125/4/4
f 124/6/4 113/6/4 125/6/4
f 114/6/4 115/6/4 126/6/4
f 125/4/4 114/4/4 126/4/4
f 115/4/4 116/4/4 127/4/4
f 126/6/4 115/6/4 127/6/4
f 116/6/4 92/6/4 128/6/4
f 127/4/4 116/4/4 128/4/4
f 117/5/4 118/5/4 129/5/4
f 101/8/4 117/8/4 129/8/4
f 118/8/4 107/8/4 130/8/4
f 129/5/4 118/5/4 130/5/4
f 107/7/4 108/7/4 131/7/4
f 130/8/4 107/8/4 131/8/4
f 108/6/4 119/6/4 132/6/4
f 131/7/4 108/7/4 132/7/4
f 119/5/4 120/5/4 133/5/4
f 132/6/4 119/6/4 133/6/4
f 121/5/4 122/5/4 133/5/4
f 120/5/4 121/5/4 133/5/4
f 126/6/4 127/6/4 134/6/4
f 133/5/4 122/5/4 134/5/4
f 127/6/4 128/6/4 134/6/4
f 125/6/4 126/6/4 134/6/4
f 124/6/4 125/6/4 134/6/4
f 123/6/4 124/6/4 134/6/4
f 122/6/4 123/6/4 134/6/4
f 134/6/4 128/6/4 135/6/4
f 135/6/4 128/6/4 136/6/4
f 91/6/4 101/6/4 137/6/4
f 130/8/4 131/8/4 137/8/4
f 101/8/4 129/8/4 137/8/4
f 129/8/4 130/8/4 137/8/4
f 134/6/4 135/6/4 138/6/4
f 137/8/4 131/8/4 138/8/4
f 132/6/4 133/6/4 138/6/4
f 133/6/4 134/6/4 138/6/4
f 131/6/4 132/6/4 138/6/4
f 135/2/4 136/2/4 139/2/4
f 139/2/4 136/2/4 140/2/4
f 136/6/4 128/6/4 141/6/4
f 140/2/4 136/2/4 141/2/4
f 141/6/4 128/6/4 142/6/4
f 137/6/4 138/6/4 143/6/4
f 143/6/4 138/6/4 144/6/4
f 138/6/4 135/6/4 145/6/4
f 144/6/4 138/6/4 145/6/4
f 145/6/4 135/6/4 146/6/4
f 146/6/4 135/6/4 147/6/4
f 147/6/4 135/6/4 148/6/4
f 139/1/4 140/1/4 149/1/4
f 135/2/4 139/2/4 149/2/4
f 140/2/4 141/2/4 150/2/4
f 149/1/4 140/1/4 150/1/4
f 143/4/4 144/4/4 151/4/4
f 137/6/4 143/6/4 151/6/4
f 144/6/4 145/6/4 152/6/4
f 151/4/4 144/4/4 152/4/4
f 145/4/4 146/4/4 153/4/4
f 152/6/4 145/6/4 153/6/4
f 146/6/4 147/6/4 154/6/4
f 153/4/4 146/4/4 154/4/4
f 147/4/4 148/4/4 155/4/4
f 154/6/4 147/6/4 155/6/4
f 148/6/4 135/6/4 156/6/4
f 155/4/4 148/4/4 156/4/4
f 150/2/4 141/2/4 157/2/4
f 141/3/4 142/3/4 157/3/4
f 149/2/4 150/2/4 157/2/4
f 142/6/4 128/6/4 158/6/4
f 157/3/4 142/3/4 158/3/4
f 154/6/4 155/6/4 159/6/4
f 156/6/4 135/6/4 159/6/4
f 149/2/4 157/2/4 159/2/4
f 151/6/4 152/6/4 159/6/4
f 153/6/4 154/6/4 159/6/4
f 152/6/4 153/6/4 159/6/4
f 155/6/4 156/6/4 159/6/4
f 135/2/4 149/2/4 159/2/4
f 159/2/4 157/2/4 160/2/4
f 160/2/4 157/2/4 161/2/4
f 157/6/4 158/6/4 162/6/4
f 161/2/4 157/2/4 162/2/4
f 151/6/4 159/6/4 163/6/4
f 159/6/4 160/6/4 163/6/4
f 160/3/4 161/3/4 164/3/4
f 163/6/4 160/6/4 164/6/4
f 161/6/4 162/6/4 165/6/4
f 164/3/4 161/3/4 165/3/4
f 162/6/4 158/6/4 166/6/4
f 165/6/4 162/6/4 166/6/4
f 151/6/4 163/6/4 167/6/4
f 163/3/4 164/3/4 167/3/4
f 164/6/4 165/6/4 168/6/4
f 167/3/4 164/3/4 168/3/4
f 165/3/4 166/3/4 169/3/4
f 168/6/4 165/6/4 169/6/4
f 166/6/4 158/6/4 170/6/4
f 169/3/4 166/3/4 170/3/4
f 168/6/4 169/6/4 171/6/4
f 91/6/4 137/6/4 171/6/4
f 169/6/4 170/6/4 171/6/4
f 167/6/4 168/6/4 171/6/4
f 151/6/4 167/6/4 171/6/4
f 137/6/4 151/6/4 171/6/4
f 158/6/4 128/6/4 172/6/4
f 171/6/4 170/6/4 172/6/4
f 170/6/4 158/6/4 172/6/4
f 128/6/4 92/6/4 172/6/4
f 175/6/5 174/6/5 173/6/5
f 176/6/5 174/6/5 175/6/5
f 177/6/6 178/6/6 179/6/6
f 179/6/6 178/6/6 180/6/6
