# MagicaVoxel @ Ephtracy

# group
o 

# material
mtllib Room1-5.mtl
usemtl palette

# normals
vn -1 0 0
vn 1 0 0
vn 0 0 1
vn 0 0 -1
vn 0 -1 0
vn 0 1 0

# texcoords
vt 0.533203 0.5
vt 0.537109 0.5
vt 0.541016 0.5

# verts
v 3.7 0.6 -1
v 3.7 0.6 -1.3
v 3.7 0.7 -1
v 3.7 0.7 -1.3
v 3.9 0.2 -0.9
v 3.9 0.2 -1.8
v 3.9 0.4 -1.3
v 3.9 0.4 -1.8
v 3.9 0.5 -1
v 3.9 0.5 -1.1
v 3.9 0.5 -1.4
v 3.9 0.5 -1.5
v 3.9 0.5 -1.6
v 3.9 0.5 -1.7
v 3.9 0.6 -1
v 3.9 0.6 -1.1
v 3.9 0.6 -1.4
v 3.9 0.6 -1.5
v 3.9 0.6 -1.6
v 3.9 0.6 -1.7
v 3.9 0.7 -1
v 3.9 0.7 -1.1
v 3.9 0.7 -1.4
v 3.9 0.7 -1.5
v 3.9 0.7 -1.6
v 3.9 0.7 -1.7
v 3.9 0.8 -1
v 3.9 0.8 -1.1
v 3.9 0.8 -1.4
v 3.9 0.8 -1.5
v 3.9 0.8 -1.6
v 3.9 0.8 -1.7
v 3.9 0.9 -1.3
v 3.9 0.9 -1.8
v 3.9 1.1 -0.9
v 3.9 1.1 -1.8
v 3.8 0.6 -1.1
v 3.8 0.6 -1.3
v 3.8 0.7 -1.1
v 3.8 0.7 -1.3
v 4.6 0.2 -0.9
v 4.6 0.2 -1
v 4.6 0.2 -1.8
v 4.6 1.1 -0.9
v 4.6 1.1 -1
v 4.6 1.1 -1.8
v 3.9 0.2 -0.9
v 3.9 1.1 -0.9
v 4 0.2 -0.9
v 4 1.1 -0.9
v 4.6 0.2 -0.9
v 4.6 1.1 -0.9
v 3.7 0.6 -1
v 3.7 0.7 -1
v 3.9 0.6 -1
v 3.9 0.7 -1
v 3.8 0.6 -1.1
v 3.8 0.7 -1.1
v 3.9 0.6 -1.1
v 3.9 0.7 -1.1
v 3.7 0.6 -1.3
v 3.7 0.7 -1.3
v 3.8 0.6 -1.3
v 3.8 0.7 -1.3
v 3.9 0.2 -1.8
v 3.9 0.4 -1.8
v 3.9 0.9 -1.8
v 3.9 1.1 -1.8
v 4 0.4 -1.8
v 4 0.9 -1.8
v 4.6 0.2 -1.8
v 4.6 1.1 -1.8
v 3.9 0.2 -0.9
v 4 0.2 -0.9
v 4.6 0.2 -0.9
v 4 0.2 -1
v 4.6 0.2 -1
v 3.9 0.2 -1.8
v 4.6 0.2 -1.8
v 3.7 0.6 -1
v 3.9 0.6 -1
v 3.8 0.6 -1.1
v 3.9 0.6 -1.1
v 3.7 0.6 -1.3
v 3.8 0.6 -1.3
v 3.7 0.7 -1
v 3.9 0.7 -1
v 3.8 0.7 -1.1
v 3.9 0.7 -1.1
v 3.7 0.7 -1.3
v 3.8 0.7 -1.3
v 3.9 1.1 -0.9
v 4 1.1 -0.9
v 4.6 1.1 -0.9
v 4 1.1 -1
v 4.6 1.1 -1
v 3.9 1.1 -1.8
v 4.6 1.1 -1.8

# faces
f 3/3/1 2/3/1 1/3/1
f 4/3/1 2/3/1 3/3/1
f 7/2/1 6/2/1 5/2/1
f 8/2/1 6/2/1 7/2/1
f 9/2/1 7/2/1 5/2/1
f 10/2/1 7/2/1 9/2/1
f 11/3/1 8/3/1 7/3/1
f 12/3/1 8/3/1 11/3/1
f 13/3/1 8/3/1 12/3/1
f 14/3/1 8/3/1 13/3/1
f 15/2/1 9/2/1 5/2/1
f 15/3/1 10/3/1 9/3/1
f 16/2/1 7/2/1 10/2/1
f 16/3/1 10/3/1 15/3/1
f 17/3/1 11/3/1 7/3/1
f 17/2/1 12/2/1 11/2/1
f 18/1/1 13/1/1 12/1/1
f 18/2/1 12/2/1 17/2/1
f 19/2/1 14/2/1 13/2/1
f 19/1/1 13/1/1 18/1/1
f 20/3/1 8/3/1 14/3/1
f 20/2/1 14/2/1 19/2/1
f 21/2/1 15/2/1 5/2/1
f 22/2/1 7/2/1 16/2/1
f 23/1/1 18/1/1 17/1/1
f 23/3/1 17/3/1 7/3/1
f 24/2/1 19/2/1 18/2/1
f 24/1/1 18/1/1 23/1/1
f 25/1/1 20/1/1 19/1/1
f 25/2/1 19/2/1 24/2/1
f 26/3/1 8/3/1 20/3/1
f 26/1/1 20/1/1 25/1/1
f 27/3/1 22/3/1 21/3/1
f 27/2/1 21/2/1 5/2/1
f 28/2/1 7/2/1 22/2/1
f 28/3/1 22/3/1 27/3/1
f 29/3/1 23/3/1 7/3/1
f 29/2/1 24/2/1 23/2/1
f 30/1/1 25/1/1 24/1/1
f 30/2/1 24/2/1 29/2/1
f 31/2/1 26/2/1 25/2/1
f 31/1/1 25/1/1 30/1/1
f 32/3/1 8/3/1 26/3/1
f 32/2/1 26/2/1 31/2/1
f 33/3/1 29/3/1 7/3/1
f 33/2/1 7/2/1 28/2/1
f 33/3/1 32/3/1 31/3/1
f 33/3/1 31/3/1 30/3/1
f 33/3/1 30/3/1 29/3/1
f 33/2/1 28/2/1 27/2/1
f 34/3/1 8/3/1 32/3/1
f 34/3/1 32/3/1 33/3/1
f 35/2/1 33/2/1 27/2/1
f 35/2/1 27/2/1 5/2/1
f 35/2/1 34/2/1 33/2/1
f 36/2/1 34/2/1 35/2/1
f 37/3/2 38/3/2 39/3/2
f 39/3/2 38/3/2 40/3/2
f 41/3/2 42/3/2 44/3/2
f 42/2/2 43/2/2 45/2/2
f 44/3/2 42/3/2 45/3/2
f 45/2/2 43/2/2 46/2/2
f 49/2/3 48/2/3 47/2/3
f 50/2/3 48/2/3 49/2/3
f 51/3/3 50/3/3 49/3/3
f 52/3/3 50/3/3 51/3/3
f 55/3/3 54/3/3 53/3/3
f 56/3/3 54/3/3 55/3/3
f 57/3/4 58/3/4 59/3/4
f 59/3/4 58/3/4 60/3/4
f 61/3/4 62/3/4 63/3/4
f 63/3/4 62/3/4 64/3/4
f 65/2/4 66/2/4 69/2/4
f 66/3/4 67/3/4 69/3/4
f 67/2/4 68/2/4 70/2/4
f 69/3/4 67/3/4 70/3/4
f 65/2/4 69/2/4 71/2/4
f 69/2/4 70/2/4 71/2/4
f 70/2/4 68/2/4 72/2/4
f 71/2/4 70/2/4 72/2/4
f 76/2/5 74/2/5 73/2/5
f 76/3/5 75/3/5 74/3/5
f 77/3/5 75/3/5 76/3/5
f 78/2/5 76/2/5 73/2/5
f 78/2/5 77/2/5 76/2/5
f 79/2/5 77/2/5 78/2/5
f 82/3/5 81/3/5 80/3/5
f 83/3/5 81/3/5 82/3/5
f 84/3/5 82/3/5 80/3/5
f 85/3/5 82/3/5 84/3/5
f 86/3/6 87/3/6 88/3/6
f 88/3/6 87/3/6 89/3/6
f 86/3/6 88/3/6 90/3/6
f 90/3/6 88/3/6 91/3/6
f 92/2/6 93/2/6 95/2/6
f 93/3/6 94/3/6 95/3/6
f 95/3/6 94/3/6 96/3/6
f 92/2/6 95/2/6 97/2/6
f 95/2/6 96/2/6 97/2/6
f 97/2/6 96/2/6 98/2/6
