# MagicaVoxel @ Ephtracy

# group
o 

# material
mtllib Room1-3.mtl
usemtl palette

# normals
vn -1 0 0
vn 1 0 0
vn 0 0 1
vn 0 0 -1
vn 0 -1 0
vn 0 1 0

# texcoords
vt 0.564453 0.5
vt 0.595703 0.5
vt 0.724609 0.5
vt 0.728516 0.5

# verts
v 4.7 0.2 4.7
v 4.7 0.2 -4.7
v 4.7 0.5 4.7
v 4.7 0.5 -4.7
v 4.7 8.4 4.7
v 4.7 8.4 -4.7
v 5 0.2 4.7
v 5 0.2 -4.7
v 5 8.4 4.7
v 5 8.4 -4.7
v 4.7 0.2 4.7
v 4.7 0.5 4.7
v 4.7 8.4 4.7
v 4.8 0.2 4.7
v 4.8 0.5 4.7
v 4.8 8.3 4.7
v 4.9 0.2 4.7
v 4.9 8.3 4.7
v 5 0.2 4.7
v 5 8.4 4.7
v 4.7 0.2 -4.7
v 4.7 0.5 -4.7
v 4.7 8.4 -4.7
v 4.8 0.2 -4.7
v 4.8 0.5 -4.7
v 4.8 8.3 -4.7
v 4.9 0.2 -4.7
v 4.9 8.3 -4.7
v 5 0.2 -4.7
v 5 8.4 -4.7
v 4.7 0.2 4.7
v 4.8 0.2 4.7
v 4.9 0.2 4.7
v 5 0.2 4.7
v 4.8 0.2 4.2
v 4.9 0.2 4.2
v 4.8 0.2 3.9
v 4.9 0.2 3.9
v 4.8 0.2 1.6
v 4.9 0.2 1.6
v 4.8 0.2 1
v 4.9 0.2 1
v 4.7 0.2 -4.7
v 4.8 0.2 -4.7
v 4.9 0.2 -4.7
v 5 0.2 -4.7
v 4.7 8.4 4.7
v 5 8.4 4.7
v 4.7 8.4 -4.7
v 5 8.4 -4.7

# faces
f 3/4/1 2/4/1 1/4/1
f 4/4/1 2/4/1 3/4/1
f 5/2/1 4/2/1 3/2/1
f 6/2/1 4/2/1 5/2/1
f 7/2/2 8/2/2 9/2/2
f 9/2/2 8/2/2 10/2/2
f 14/4/3 12/4/3 11/4/3
f 15/2/3 13/2/3 12/2/3
f 15/4/3 12/4/3 14/4/3
f 16/2/3 13/2/3 15/2/3
f 17/3/3 15/3/3 14/3/3
f 17/3/3 16/3/3 15/3/3
f 18/2/3 13/2/3 16/2/3
f 18/3/3 16/3/3 17/3/3
f 19/2/3 18/2/3 17/2/3
f 20/2/3 13/2/3 18/2/3
f 20/2/3 18/2/3 19/2/3
f 21/4/4 22/4/4 24/4/4
f 22/2/4 23/2/4 25/2/4
f 24/4/4 22/4/4 25/4/4
f 25/2/4 23/2/4 26/2/4
f 24/3/4 25/3/4 27/3/4
f 25/3/4 26/3/4 27/3/4
f 26/2/4 23/2/4 28/2/4
f 27/3/4 26/3/4 28/3/4
f 27/2/4 28/2/4 29/2/4
f 28/2/4 23/2/4 30/2/4
f 29/2/4 28/2/4 30/2/4
f 35/4/5 32/4/5 31/4/5
f 35/3/5 33/3/5 32/3/5
f 36/2/5 34/2/5 33/2/5
f 36/3/5 33/3/5 35/3/5
f 37/4/5 35/4/5 31/4/5
f 37/2/5 36/2/5 35/2/5
f 38/2/5 34/2/5 36/2/5
f 38/2/5 36/2/5 37/2/5
f 39/4/5 37/4/5 31/4/5
f 39/1/5 38/1/5 37/1/5
f 40/2/5 34/2/5 38/2/5
f 40/1/5 38/1/5 39/1/5
f 41/4/5 39/4/5 31/4/5
f 41/2/5 40/2/5 39/2/5
f 42/2/5 34/2/5 40/2/5
f 42/2/5 40/2/5 41/2/5
f 43/4/5 41/4/5 31/4/5
f 44/3/5 42/3/5 41/3/5
f 44/4/5 41/4/5 43/4/5
f 45/2/5 34/2/5 42/2/5
f 45/3/5 42/3/5 44/3/5
f 46/2/5 34/2/5 45/2/5
f 47/2/6 48/2/6 49/2/6
f 49/2/6 48/2/6 50/2/6
