# MagicaVoxel @ Ephtracy

# group
o 

# material
mtllib Room1-1.mtl
usemtl palette

# normals
vn 1 0 0
vn -1 0 0
vn 0 0 -1
vn 0 0 1
vn 0 -1 0
vn 0 1 0

# texcoords
vt 0.595703 0.5
vt 0.728516 0.5

# verts
v 5 0.2 4.7
v 5 0.2 5
v 5 8.4 4.7
v 5 8.4 5
v -4.7 0.2 4.7
v -4.7 0.2 4.8
v -4.7 0.2 5
v -4.7 0.5 4.7
v -4.7 0.5 4.8
v -4.7 8.4 4.7
v -4.7 8.4 5
v 5 0.2 4.7
v 5 8.4 4.7
v 4.9 0.2 4.7
v 4.9 0.5 4.7
v -4.7 0.2 4.7
v -4.7 0.5 4.7
v -4.7 8.4 4.7
v 5 0.2 5
v 5 8.4 5
v -4.7 0.2 5
v -4.7 8.4 5
v 5 0.2 4.7
v 4.9 0.2 4.7
v -4.7 0.2 4.7
v -4.6 0.2 4.8
v -4.7 0.2 4.8
v 4.9 0.2 4.9
v -4.6 0.2 4.9
v 5 0.2 5
v -4.7 0.2 5
v 5 8.4 4.7
v -4.7 8.4 4.7
v 5 8.4 5
v -4.7 8.4 5

# faces
f 3/1/1 2/1/1 1/1/1
f 4/1/1 2/1/1 3/1/1
f 5/2/2 6/2/2 8/2/2
f 6/1/2 7/1/2 9/1/2
f 8/2/2 6/2/2 9/2/2
f 8/1/2 9/1/2 10/1/2
f 9/1/2 7/1/2 11/1/2
f 10/1/2 9/1/2 11/1/2
f 14/1/3 13/1/3 12/1/3
f 15/1/3 13/1/3 14/1/3
f 16/2/3 15/2/3 14/2/3
f 17/1/3 13/1/3 15/1/3
f 17/2/3 15/2/3 16/2/3
f 18/1/3 13/1/3 17/1/3
f 19/1/4 20/1/4 21/1/4
f 21/1/4 20/1/4 22/1/4
f 26/2/5 25/2/5 24/2/5
f 27/2/5 25/2/5 26/2/5
f 28/1/5 24/1/5 23/1/5
f 28/2/5 26/2/5 24/2/5
f 29/1/5 27/1/5 26/1/5
f 29/2/5 26/2/5 28/2/5
f 30/1/5 28/1/5 23/1/5
f 30/1/5 29/1/5 28/1/5
f 31/1/5 27/1/5 29/1/5
f 31/1/5 29/1/5 30/1/5
f 32/1/6 33/1/6 34/1/6
f 34/1/6 33/1/6 35/1/6
